<svg width="59" height="61" viewBox="0 0 59 61" fill="none" xmlns="http://www.w3.org/2000/svg">
<path d="M45.0295 20.2856V13.1678C46.9733 12.2704 48.2192 10.3467 48.2291 8.22732V8.06401C48.2291 5.03677 45.7446 2.5828 42.6801 2.5828H42.5145C39.4496 2.5828 36.9652 5.03677 36.9652 8.06401V8.22732C36.975 10.3467 38.221 12.2704 40.1647 13.1678V20.2856C37.4278 20.6997 34.8503 21.8206 32.6931 23.535L12.9299 8.33017C13.0709 7.8276 13.1443 7.31095 13.1526 6.7923C13.1576 4.29408 11.6382 2.03918 9.3034 1.07896C6.96856 0.118868 4.27806 0.642827 2.48681 2.40633C0.695433 4.16997 0.156417 6.82579 1.12078 9.13518C2.08528 11.4446 4.36335 12.9525 6.89243 12.9557C7.97436 12.9507 9.03598 12.6654 9.97142 12.1284L29.4323 27.0865C25.8544 32.4251 25.9502 39.383 29.6734 44.624L23.7544 50.4722C23.2757 50.3213 22.7774 50.2409 22.2751 50.2341C19.4404 50.2366 17.1439 52.5073 17.1447 55.3072C17.1454 58.1071 19.4434 60.3765 22.2778 60.3773C25.1125 60.3779 27.4115 58.1096 27.4139 55.3097C27.4072 54.8135 27.3259 54.3212 27.1726 53.8488L33.028 48.0628C38.2601 52.0412 45.4459 52.384 51.0418 48.9221C56.6375 45.46 59.4614 38.9239 58.1207 32.5381C56.7798 26.1519 51.5576 21.2646 45.0295 20.2856ZM42.6023 43.6955C39.6573 43.7738 36.9013 42.2666 35.4055 39.7595C33.9096 37.2525 33.9096 34.141 35.4055 31.6339C36.9013 29.1269 39.6573 27.6198 42.6023 27.698C46.9618 27.8487 50.4176 31.3821 50.42 35.691C50.4219 39.9994 46.9699 43.5363 42.6104 43.6914" fill="#FF7A59"/>
</svg>
