<svg width="73" height="61" viewBox="0 0 73 61" fill="none" xmlns="http://www.w3.org/2000/svg">
<mask id="mask0_1_1096" style="mask-type:luminance" maskUnits="userSpaceOnUse" x="0" y="0" width="73" height="61">
<path d="M72.0595 0.604492H0.692627V60.3773H72.0595V0.604492Z" fill="white"/>
</mask>
<g mask="url(#mask0_1_1096)">
<path d="M18.5361 0.604492L0.692627 11.8119L18.5361 23.0193L36.3796 11.8119L54.2243 23.0193L72.0678 11.8119L54.2243 0.604492L36.3796 11.8119L18.5361 0.604492Z" fill="#F7F5F2"/>
<path d="M18.5361 45.4338L0.692627 34.2264L18.5361 23.019L36.3796 34.2264L18.5361 45.4338Z" fill="#F7F5F2"/>
<path d="M36.3812 34.2264L54.2246 23.019L72.0681 34.2264L54.2246 45.4338L36.3812 34.2264Z" fill="#F7F5F2"/>
<path d="M36.877 60.3772L19.0322 49.1698L36.877 37.9624L54.7205 49.1698L36.877 60.3772Z" fill="#F7F5F2"/>
</g>
</svg>
