<svg width="68" height="61" viewBox="0 0 68 61" fill="none" xmlns="http://www.w3.org/2000/svg">
<path d="M5.26956 51.7346L8.22201 56.8306C8.83477 57.9034 9.71804 58.7464 10.7526 59.3595L21.2888 41.1211H0.216309C0.216309 42.3089 0.518728 43.4967 1.13149 44.5696L5.26956 51.7346Z" fill="#0066DA"/>
<path d="M33.6634 19.6652L23.1271 1.42676C22.0926 2.03983 21.2092 2.88282 20.5965 3.95562L1.13149 37.6736C0.534644 38.7233 0.216309 39.9121 0.216309 41.122H21.2888L33.6634 19.6652Z" fill="#00AC47"/>
<path d="M56.574 59.3595C57.6085 58.7464 58.4918 57.9034 59.1045 56.8306L60.3301 54.7232L66.1951 44.5696C66.8078 43.4967 67.1102 42.3089 67.1102 41.1211H46.0377L50.5259 49.9338L56.574 59.3595Z" fill="#EA4335"/>
<path d="M33.6631 19.6648L44.1994 1.42645C43.1649 0.813374 41.9792 0.506836 40.7537 0.506836H26.5726C25.3471 0.506836 24.1614 0.851731 23.1269 1.42645L33.6631 19.6648Z" fill="#00832D"/>
<path d="M46.0383 41.1211H21.2891L10.7529 59.3595C11.7874 59.9725 12.9732 60.279 14.1987 60.279H53.1287C54.3542 60.279 55.54 59.9342 56.5746 59.3595L46.0383 41.1211Z" fill="#2684FC"/>
<path d="M56.463 20.8146L46.7305 3.95562C46.1177 2.88282 45.2344 2.03983 44.1998 1.42676L33.6636 19.6652L46.0382 41.122H67.0788C67.0788 39.9342 66.7684 38.7464 66.1557 37.6736L56.463 20.8146Z" fill="#FFBA00"/>
</svg>
