<svg width="60" height="61" viewBox="0 0 60 61" fill="none" xmlns="http://www.w3.org/2000/svg">
<mask id="mask0_1_1088" style="mask-type:luminance" maskUnits="userSpaceOnUse" x="0" y="0" width="60" height="61">
<path d="M59.9356 0.905273H0.162842V60.6781H59.9356V0.905273Z" fill="white"/>
</mask>
<g mask="url(#mask0_1_1088)">
<path d="M59.4636 8.44038C59.4636 4.5347 56.302 1.36987 52.401 1.36987H7.69742C3.79646 1.36987 0.634811 4.5347 0.634811 8.44038V53.1378C0.634811 57.0435 3.79646 60.2083 7.69742 60.2083H52.401C56.302 60.2083 59.4636 57.0435 59.4636 53.1378V8.44038ZM27.2493 47.3855C27.2493 49.1629 25.7078 50.4024 23.9304 50.4024H11.1736C9.39616 50.4024 8.10641 49.1629 8.10641 47.3855V11.7499C8.10641 9.97243 9.39616 8.3743 11.1736 8.3743H23.9304C25.7078 8.3743 27.2493 9.97243 27.2493 11.7499V47.3855ZM52.936 16.3524V31.2421C52.936 33.0196 51.5675 34.5249 49.7743 34.5249H37.0176C35.2401 34.5249 33.7929 33.0196 33.7929 31.2421V11.58C33.7929 9.80255 35.2401 8.3743 37.0176 8.3743H49.7743C51.5675 8.3743 52.936 9.80255 52.936 11.58V16.3524Z" fill="#23719F"/>
</g>
</svg>
