<svg width="61" height="61" viewBox="0 0 61 61" fill="none" xmlns="http://www.w3.org/2000/svg">
<path d="M37.745 30.8049C37.746 32.9601 37.3572 35.0975 36.5973 37.1143C34.5798 37.8747 32.4417 38.2633 30.2858 38.2644H30.2605C28.0405 38.261 25.9135 37.8548 23.9507 37.1154C23.1904 35.0986 22.8012 32.9601 22.802 30.8049V30.7784C22.801 28.6232 23.1893 26.4869 23.9484 24.4701C25.9659 23.7086 28.1045 23.319 30.2608 23.3201H30.286C32.442 23.319 34.5803 23.7086 36.5976 24.469C37.3576 26.4858 37.7463 28.6232 37.7452 30.7784L37.745 30.8049ZM59.7449 25.8106H42.2995L54.6345 13.4753C53.6663 12.1149 52.5863 10.8375 51.4058 9.65756C50.2253 8.4787 48.9487 7.39837 47.5894 6.43094L35.2537 18.7663V1.32146C33.613 1.04584 31.9522 0.90638 30.2885 0.905273H30.2578C28.5654 0.90638 26.9078 1.05027 25.2926 1.32146V18.7663L12.9568 6.43094C11.5973 7.39837 10.3213 8.4776 9.14226 9.65867L9.13573 9.6631C7.95721 10.8419 6.87875 12.1171 5.91154 13.4753L18.2483 25.8106H0.803292C0.803292 25.8106 0.387207 29.087 0.387207 30.7817V30.8016C0.387207 32.4963 0.530773 34.1567 0.803292 35.7727H18.2485L5.91176 48.1081C7.85239 50.8321 10.2333 53.2131 12.9568 55.1535L25.2926 42.8171V60.263C26.9314 60.5375 28.5902 60.6758 30.2519 60.6781H30.2942C31.9559 60.6769 33.6146 60.5375 35.2534 60.263V42.8171L47.5904 55.1535C48.9494 54.185 50.2256 53.1057 51.4058 51.9269L51.4087 51.9236C52.5876 50.7436 53.6666 49.4673 54.6345 48.1081L42.2978 35.7727H59.7449C60.0164 34.1589 60.1581 32.504 60.16 30.8138V30.7695C60.1581 29.0793 60.0164 27.4245 59.7449 25.8106Z" fill="#FF4A00"/>
</svg>
