<svg width="30" height="48" viewBox="0 0 30 48" fill="none" xmlns="http://www.w3.org/2000/svg">
<path d="M22.9779 35.8024C26.7327 35.8024 29.0153 38.2085 29.0153 41.417C29.0153 44.7109 26.7327 47.0316 23.0063 47.0316H-10.303C-14.0589 47.0316 -16.3404 44.7109 -16.3404 41.417C-16.3404 38.2085 -14.0589 35.8024 -10.303 35.8024H22.9779ZM23.0935 18.0125C26.7622 18.0125 28.9869 20.4186 28.9869 23.6271C28.9869 26.9221 26.7622 29.2416 23.0935 29.2416H6.53975C2.86998 29.2416 0.646303 26.9221 0.646303 23.6271C0.646303 20.4186 2.86998 18.0125 6.53975 18.0125H23.0935ZM22.9779 0.223633C26.7327 0.223633 29.0153 2.62973 29.0153 5.83821C29.0153 9.13212 26.7327 11.4528 22.9779 11.4528H-21.6569C-25.4118 11.4528 -27.6943 9.13212 -27.6943 5.83821C-27.6943 2.62973 -25.4118 0.223633 -21.6569 0.223633H22.9779Z" fill="#1A90DC"/>
</svg>
