<svg width="61" height="61" viewBox="0 0 61 61" fill="none" xmlns="http://www.w3.org/2000/svg">
<path d="M30.6623 45.7354C38.9158 45.7354 45.6065 39.0448 45.6065 30.7912C45.6065 22.537 38.9168 15.8467 30.6623 15.8467C22.4087 15.8467 15.7181 22.537 15.7181 30.7912C15.7181 39.0448 22.4087 45.7354 30.6623 45.7354Z" fill="white"/>
<path d="M17.72 38.2646L4.78067 15.8525C2.15655 20.3957 0.774902 25.5493 0.774902 30.7959C0.774902 36.0422 2.15553 41.1954 4.77965 45.7391C7.40279 50.2818 11.1763 54.0543 15.72 56.6765C20.2647 59.2987 25.4179 60.6783 30.6652 60.6774L43.6045 38.2646V38.2606C42.2934 40.534 40.4071 42.4212 38.1358 43.7333C35.8644 45.0463 33.2873 45.7381 30.6632 45.7381C28.0401 45.7381 25.463 45.0473 23.1906 43.7362C20.9173 42.4251 19.0311 40.5369 17.72 38.2646Z" fill="url(#paint0_linear_1_1115)"/>
<path d="M43.6025 38.2663L30.6633 60.6781C35.9095 60.6791 41.0637 59.2985 45.6064 56.6744C50.1501 54.0522 53.9227 50.2787 56.5458 45.736C59.168 41.1932 60.5486 36.0381 60.5476 30.7918C60.5457 25.5452 59.164 20.3916 56.5399 15.8496H30.6613L30.6573 15.852C33.2815 15.8508 35.8595 16.5399 38.1309 17.8512C40.4033 19.1625 42.2905 21.049 43.6025 23.3206C44.9146 25.5922 45.6054 28.1701 45.6054 30.7938C45.6064 33.4169 44.9146 35.993 43.6025 38.2663Z" fill="url(#paint1_linear_1_1115)"/>
<path d="M30.662 42.623C37.1959 42.623 42.4932 37.3258 42.4932 30.7919C42.4932 24.2578 37.1959 18.9609 30.662 18.9609C24.1272 18.9609 18.831 24.2578 18.831 30.7919C18.831 37.3258 24.1272 42.623 30.662 42.623Z" fill="#1A73E8"/>
<path d="M30.6621 15.8496H56.5417C53.9195 11.3052 50.146 7.53221 45.6033 4.90965C41.0596 2.28583 35.9064 0.905273 30.6601 0.905273C25.4139 0.905273 20.2597 2.287 15.717 4.91083C11.1733 7.53455 7.4017 11.3088 4.78052 15.852L17.7199 38.2652L17.7228 38.2671C16.4107 35.9958 15.7179 33.4187 15.7179 30.7955C15.7179 28.1713 16.4068 25.5934 17.7188 23.3218C19.0299 21.0491 20.9162 19.1625 23.1895 17.8512C25.4609 16.5388 28.0389 15.8484 30.6621 15.8496Z" fill="url(#paint2_linear_1_1115)"/>
<defs>
<linearGradient id="paint0_linear_1_1115" x1="33.8968" y1="58.8107" x2="8.0162" y2="13.9839" gradientUnits="userSpaceOnUse">
<stop stop-color="#1E8E3E"/>
<stop offset="1" stop-color="#34A853"/>
</linearGradient>
<linearGradient id="paint1_linear_1_1115" x1="26.3018" y1="60.7575" x2="52.1824" y2="15.9306" gradientUnits="userSpaceOnUse">
<stop stop-color="#FCC934"/>
<stop offset="1" stop-color="#FBBC04"/>
</linearGradient>
<linearGradient id="paint2_linear_1_1115" x1="4.78052" y1="19.5863" x2="56.5417" y2="19.5863" gradientUnits="userSpaceOnUse">
<stop stop-color="#D93025"/>
<stop offset="1" stop-color="#EA4335"/>
</linearGradient>
</defs>
</svg>
