<svg width="67" height="48" viewBox="0 0 67 48" fill="none" xmlns="http://www.w3.org/2000/svg">
<path d="M65.0575 0.864258H53.774C52.8393 0.864258 52.0815 1.62203 52.0815 2.55679V44.5879C52.0815 45.5227 52.8393 46.2804 53.774 46.2804H65.0575C65.9923 46.2804 66.75 45.5227 66.75 44.5879V2.55679C66.75 1.62203 65.9923 0.864258 65.0575 0.864258Z" fill="white"/>
<path d="M48.9332 2.49018L37.8565 0.340109C36.9389 0.16199 36.0505 0.761465 35.8724 1.67909L27.8633 42.9401C27.6852 43.8577 28.2848 44.746 29.2024 44.9241L40.2792 47.0742C41.1968 47.2523 42.0851 46.6528 42.2632 45.7352L50.2722 4.4742C50.4503 3.55657 49.8509 2.6683 48.9332 2.49018Z" fill="white"/>
<path d="M32.4524 5.93781L22.4116 0.789768C21.5798 0.363294 20.5598 0.691885 20.1333 1.52368L0.957007 38.9253C0.530533 39.7571 0.859097 40.7772 1.6909 41.2036L11.7317 46.3517C12.5635 46.7781 13.5835 46.4496 14.01 45.6178L33.1863 8.21611C33.6128 7.38431 33.2842 6.36429 32.4524 5.93781Z" fill="white"/>
</svg>
