<svg width="61" height="61" viewBox="0 0 61 61" fill="none" xmlns="http://www.w3.org/2000/svg">
<path d="M22.7887 0.601562C19.4844 0.604033 16.8106 3.2801 16.813 6.57763C16.8106 9.87517 19.4868 12.5512 22.7918 12.5536H28.7699V6.58002C28.7723 3.28248 26.0961 0.606424 22.7887 0.601562C22.7919 0.601562 22.7919 0.601562 22.7887 0.601562ZM22.7887 16.5409H6.85168C3.54665 16.5434 0.870418 19.2195 0.872809 22.517C0.868027 25.8145 3.54424 28.4906 6.84847 28.4955H22.7887C26.0937 28.493 28.7699 25.8169 28.7675 22.5194C28.7699 19.2195 26.0937 16.5434 22.7887 16.5409Z" fill="#36C5F0"/>
<path d="M60.6477 22.517C60.6501 19.2195 57.9739 16.5434 54.6689 16.5409C51.3646 16.5434 48.6884 19.2195 48.6908 22.517V28.4955H54.6689C57.9739 28.493 60.6501 25.8169 60.6477 22.517ZM44.7076 22.517V6.57763C44.71 3.28249 42.0361 0.606424 38.7311 0.601562C35.4269 0.604033 32.7507 3.2801 32.7531 6.57763V22.517C32.7483 25.8145 35.4245 28.4906 38.7287 28.4955C42.0337 28.493 44.71 25.8169 44.7076 22.517Z" fill="#2EB67D"/>
<path d="M38.7296 60.3759C42.0338 60.3735 44.71 57.6974 44.7076 54.3998C44.71 51.1023 42.0338 48.4262 38.7296 48.4238H32.7507V54.3998C32.7483 57.6949 35.4245 60.3711 38.7296 60.3759ZM38.7296 44.4341H54.6698C57.974 44.4316 60.6502 41.7556 60.6478 38.458C60.6526 35.1605 57.9764 32.4844 54.6721 32.4795H38.732C35.4278 32.482 32.7507 35.158 32.7531 38.4556C32.7507 41.7556 35.4245 44.4316 38.7296 44.4341Z" fill="#ECB22E"/>
<path d="M0.87256 38.4585C0.870169 41.756 3.5464 44.4321 6.85143 44.4345C10.1557 44.4321 12.8319 41.756 12.8295 38.4585V32.4824H6.85143C3.5464 32.4849 0.870169 35.161 0.87256 38.4585ZM16.8127 38.4585V54.3979C16.8079 57.6954 19.4842 60.3715 22.7884 60.3763C26.0934 60.3739 28.7696 57.6978 28.7672 54.4003V38.4634C28.772 35.1658 26.0958 32.4898 22.7916 32.4849C19.4842 32.4849 16.8103 35.161 16.8127 38.4585Z" fill="#E01E5A"/>
</svg>
