<svg width="45" height="45" viewBox="0 0 45 45" fill="none" xmlns="http://www.w3.org/2000/svg">
<path fill-rule="evenodd" clip-rule="evenodd" d="M19.6874 27.871V44.3564H16.9065V19.5749C16.9065 18.0466 18.1609 16.8462 19.6874 16.8462H27.9195V25.0878C27.9195 26.6173 26.7204 27.8721 25.1939 27.8721L19.6874 27.871ZM44.4932 0.25009V41.5733C44.4921 42.3093 44.1987 43.0148 43.6781 43.5362C43.1575 44.0577 42.4508 44.3528 41.7135 44.3575H38.9867V2.97981C38.9832 2.62109 39.0503 2.26496 39.1858 1.93256C39.3212 1.60015 39.5215 1.29793 39.7759 1.04375C40.0291 0.789571 40.3318 0.588483 40.6652 0.452114C40.9973 0.315863 41.3542 0.247154 41.7146 0.25009H44.4932ZM33.4802 0.25009H36.2058V41.5733C36.2058 43.1017 34.9525 44.3575 33.4802 44.3575H30.6993V14.0067C30.6993 12.4772 31.9537 11.2769 33.4802 11.2769V0.25009ZM11.3999 44.3564H8.67317V2.97981C8.66964 2.62109 8.73679 2.26519 8.87224 1.93279C9.0077 1.60038 9.20794 1.29828 9.46236 1.0441C9.7156 0.789925 10.0183 0.588837 10.3505 0.452468C10.6838 0.3161 11.0395 0.247271 11.3999 0.25009H14.1809V30.5464C14.1785 31.2823 13.8852 31.9878 13.3646 32.509C12.8428 33.0303 12.1361 33.3253 11.3987 33.3296V44.3564H11.3999ZM0.385742 44.3564V2.97981C0.385742 1.45145 1.63897 0.25009 3.16549 0.25009H5.89462V41.5733C5.89462 43.1017 4.69436 44.3575 3.16667 44.3575L0.385742 44.3564Z" fill="#F85E1F"/>
</svg>
