<svg width="22" height="15" viewBox="0 0 22 15" fill="none" xmlns="http://www.w3.org/2000/svg">
<g clip-path="url(#clip0_1_818)">
<path d="M21.577 4.712H0V0.372002C0 0.273341 0.0391927 0.178719 0.108956 0.108955C0.17872 0.0391918 0.273339 0 0.372 0H21.205C21.3037 0 21.3983 0.0391918 21.468 0.108955C21.5378 0.178719 21.577 0.273341 21.577 0.372002V4.712Z" fill="#464655"/>
<path d="M21.205 14.1368H0.372C0.273339 14.1368 0.17872 14.0976 0.108956 14.0279C0.0391927 13.9581 0 13.8635 0 13.7648L0 9.4248H21.577V13.7648C21.577 13.8635 21.5378 13.9581 21.468 14.0279C21.3983 14.0976 21.3037 14.1368 21.205 14.1368Z" fill="#FFE15A"/>
<path d="M21.577 4.71191H0V9.42391H21.577V4.71191Z" fill="#FF4B55"/>
</g>
<defs>
<clipPath id="clip0_1_818">
<rect width="21.577" height="14.137" fill="white"/>
</clipPath>
</defs>
</svg>
