<svg width="22" height="15" viewBox="0 0 22 15" fill="none" xmlns="http://www.w3.org/2000/svg">
<g id="dutch-language-flag-icon 1" clip-path="url(#clip0_1_832)">
<path id="Path 3" d="M21.577 4.7452H0V0.405205C0 0.306544 0.0391927 0.211922 0.108956 0.142159C0.17872 0.072395 0.273339 0.0332031 0.372 0.0332031H21.205C21.3037 0.0332031 21.3983 0.072395 21.468 0.142159C21.5378 0.211922 21.577 0.306544 21.577 0.405205V4.7452Z" fill="#FF4B55"/>
<path id="Path 4" d="M21.205 14.17H0.372C0.273339 14.17 0.17872 14.1308 0.108956 14.0611C0.0391927 13.9913 0 13.8967 0 13.798L0 9.45801H21.577V13.798C21.577 13.8967 21.5378 13.9913 21.468 14.0611C21.3983 14.1308 21.3037 14.17 21.205 14.17Z" fill="#41479B"/>
<path id="Rectangle 6" d="M21.577 4.74512H0V9.45712H21.577V4.74512Z" fill="#F5F5F5"/>
</g>
<defs>
<clipPath id="clip0_1_832">
<rect width="21.577" height="14.137" fill="white" transform="translate(0 0.0332031)"/>
</clipPath>
</defs>
</svg>
