<svg width="22" height="15" viewBox="0 0 22 15" fill="none" xmlns="http://www.w3.org/2000/svg">
<g clip-path="url(#clip0_1_758)">
<path d="M21.205 14.1536H0.372C0.273339 14.1536 0.17872 14.1144 0.108956 14.0446C0.0391927 13.9749 0 13.8803 0 13.7816L0 0.388603C0 0.289943 0.0391927 0.19532 0.108956 0.125557C0.17872 0.0557934 0.273339 0.0166016 0.372 0.0166016H21.205C21.3037 0.0166016 21.3983 0.0557934 21.468 0.125557C21.5378 0.19532 21.577 0.289943 21.577 0.388603V13.7816C21.577 13.8803 21.5378 13.9749 21.468 14.0446C21.3983 14.1144 21.3037 14.1536 21.205 14.1536Z" fill="#F5F5F5"/>
<path d="M21.577 1.1036H0V0.388603C0 0.289943 0.0391927 0.19532 0.108956 0.125557C0.17872 0.0557934 0.273339 0.0166016 0.372 0.0166016H21.205C21.3037 0.0166016 21.3983 0.0557934 21.468 0.125557C21.5378 0.19532 21.577 0.289943 21.577 0.388603V1.1036Z" fill="#FF4B55"/>
<path d="M21.577 4.36621H0V5.45321H21.577V4.36621Z" fill="#FF4B55"/>
<path d="M21.577 2.19141H0V3.27841H21.577V2.19141Z" fill="#FF4B55"/>
<path d="M21.577 7.62894H0.372C0.273339 7.62894 0.17872 7.58975 0.108956 7.51999C0.0391927 7.45023 0 7.3556 0 7.25694L0 6.54395H21.577V7.62894Z" fill="#FF4B55"/>
<path d="M21.577 10.8916H0V11.9786H21.577V10.8916Z" fill="#FF4B55"/>
<path d="M21.205 14.1524H0.372C0.273339 14.1524 0.17872 14.1133 0.108956 14.0435C0.0391927 13.9737 0 13.8791 0 13.7804L0 13.0654H21.577V13.7804C21.577 13.8293 21.5674 13.8777 21.5487 13.9228C21.53 13.9679 21.5026 14.0089 21.468 14.0435C21.4335 14.078 21.3925 14.1054 21.3474 14.1241C21.3022 14.1428 21.2539 14.1524 21.205 14.1524Z" fill="#FF4B55"/>
<path d="M21.577 8.7168H0V9.8038H21.577V8.7168Z" fill="#FF4B55"/>
<path d="M9.673 0.0166016H0.372C0.273339 0.0166016 0.17872 0.0557934 0.108956 0.125557C0.0391927 0.19532 0 0.289943 0 0.388603L0 7.2566C0 7.35526 0.0391927 7.44988 0.108956 7.51965C0.17872 7.58941 0.273339 7.6286 0.372 7.6286H9.672C9.77066 7.6286 9.86528 7.58941 9.93504 7.51965C10.0048 7.44988 10.044 7.35526 10.044 7.2566V0.388603C10.044 0.290116 10.0049 0.195643 9.9354 0.125908C9.86585 0.056173 9.77149 0.0168663 9.673 0.0166016Z" fill="#41479B"/>
<path d="M1.04798 0.870987L1.12998 1.11799H1.38998C1.39733 1.11799 1.40449 1.1203 1.41045 1.1246C1.4164 1.12889 1.42086 1.13495 1.42318 1.14192C1.42551 1.14889 1.42558 1.15642 1.42339 1.16343C1.4212 1.17044 1.41686 1.17658 1.41098 1.18099L1.20198 1.33599L1.28098 1.58399C1.28326 1.59103 1.28325 1.59862 1.28095 1.60565C1.27865 1.61269 1.27417 1.61881 1.26817 1.62315C1.26217 1.62748 1.25495 1.6298 1.24755 1.62977C1.24015 1.62974 1.23295 1.62737 1.22698 1.62299L1.01498 1.47199L0.802981 1.62299C0.797013 1.62737 0.78981 1.62974 0.782409 1.62977C0.775008 1.6298 0.767788 1.62748 0.761788 1.62315C0.755788 1.61881 0.751315 1.61269 0.749014 1.60565C0.746713 1.59862 0.746702 1.59103 0.748981 1.58399L0.82798 1.33599L0.618981 1.18099C0.613104 1.17658 0.608763 1.17044 0.606572 1.16343C0.604382 1.15642 0.604454 1.14889 0.606777 1.14192C0.6091 1.13495 0.613556 1.12889 0.619516 1.1246C0.625475 1.1203 0.632635 1.11799 0.639981 1.11799H0.899981L0.981981 0.870987C0.984393 0.864162 0.988861 0.85826 0.994771 0.85408C1.00068 0.849901 1.00774 0.847656 1.01498 0.847656C1.02222 0.847656 1.02928 0.849901 1.03519 0.85408C1.0411 0.85826 1.04557 0.864162 1.04798 0.870987Z" fill="#F5F5F5"/>
<path d="M1.04798 2.16298L1.12998 2.40999H1.38998C1.39733 2.40999 1.40449 2.4123 1.41045 2.4166C1.4164 2.42089 1.42086 2.42695 1.42318 2.43391C1.42551 2.44088 1.42558 2.4484 1.42339 2.45541C1.4212 2.46243 1.41686 2.46857 1.41098 2.47298L1.20198 2.62799L1.28098 2.87598C1.28326 2.88302 1.28325 2.89061 1.28095 2.89764C1.27865 2.90468 1.27417 2.9108 1.26817 2.91513C1.26217 2.91946 1.25495 2.9218 1.24755 2.92177C1.24015 2.92174 1.23295 2.91936 1.22698 2.91498L1.01498 2.76398L0.802981 2.91498C0.797013 2.91936 0.78981 2.92174 0.782409 2.92177C0.775008 2.9218 0.767788 2.91946 0.761788 2.91513C0.755788 2.9108 0.751315 2.90468 0.749014 2.89764C0.746713 2.89061 0.746702 2.88302 0.748981 2.87598L0.82798 2.62799L0.618981 2.47298C0.613104 2.46857 0.608763 2.46243 0.606572 2.45541C0.604382 2.4484 0.604454 2.44088 0.606777 2.43391C0.6091 2.42695 0.613556 2.42089 0.619516 2.4166C0.625475 2.4123 0.632635 2.40999 0.639981 2.40999H0.899981L0.981981 2.16298C0.984393 2.15615 0.988861 2.15025 0.994771 2.14607C1.00068 2.14189 1.00774 2.13965 1.01498 2.13965C1.02222 2.13965 1.02928 2.14189 1.03519 2.14607C1.0411 2.15025 1.04557 2.15615 1.04798 2.16298Z" fill="#F5F5F5"/>
<path d="M1.04798 3.45303L1.12998 3.70003H1.38998C1.39733 3.70003 1.40449 3.70234 1.41045 3.70663C1.4164 3.71093 1.42086 3.717 1.42318 3.72397C1.42551 3.73094 1.42558 3.73846 1.42339 3.74547C1.4212 3.75248 1.41686 3.75862 1.41098 3.76303L1.20198 3.91803L1.28098 4.16603C1.28326 4.17307 1.28325 4.18065 1.28095 4.18768C1.27865 4.19472 1.27417 4.20085 1.26817 4.20518C1.26217 4.20952 1.25495 4.21183 1.24755 4.21181C1.24015 4.21178 1.23295 4.20941 1.22698 4.20503L1.01498 4.05403L0.802981 4.20503C0.797013 4.20941 0.78981 4.21178 0.782409 4.21181C0.775008 4.21183 0.767788 4.20952 0.761788 4.20518C0.755788 4.20085 0.751315 4.19472 0.749014 4.18768C0.746713 4.18065 0.746702 4.17307 0.748981 4.16603L0.82798 3.91803L0.618981 3.76303C0.613104 3.75862 0.608763 3.75248 0.606572 3.74547C0.604382 3.73846 0.604454 3.73094 0.606777 3.72397C0.6091 3.717 0.613556 3.71093 0.619516 3.70663C0.625475 3.70234 0.632635 3.70003 0.639981 3.70003H0.899981L0.981981 3.45303C0.984393 3.44621 0.988861 3.44029 0.994771 3.43611C1.00068 3.43193 1.00774 3.42969 1.01498 3.42969C1.02222 3.42969 1.02928 3.43193 1.03519 3.43611C1.0411 3.44029 1.04557 3.44621 1.04798 3.45303Z" fill="#F5F5F5"/>
<path d="M1.04798 4.74696L1.12998 4.99397H1.38998C1.39733 4.99397 1.40449 4.99628 1.41045 5.00058C1.4164 5.00488 1.42086 5.01093 1.42318 5.0179C1.42551 5.02487 1.42558 5.03239 1.42339 5.0394C1.4212 5.04641 1.41686 5.05257 1.41098 5.05698L1.20198 5.21198L1.28098 5.45998C1.28326 5.46702 1.28325 5.47459 1.28095 5.48163C1.27865 5.48866 1.27417 5.49478 1.26817 5.49911C1.26217 5.50345 1.25495 5.50578 1.24755 5.50575C1.24015 5.50573 1.23295 5.50334 1.22698 5.49896L1.01498 5.34798L0.802981 5.49896C0.797013 5.50334 0.78981 5.50573 0.782409 5.50575C0.775008 5.50578 0.767788 5.50345 0.761788 5.49911C0.755788 5.49478 0.751315 5.48866 0.749014 5.48163C0.746713 5.47459 0.746702 5.46702 0.748981 5.45998L0.82798 5.21198L0.618981 5.05698C0.613104 5.05257 0.608763 5.04641 0.606572 5.0394C0.604382 5.03239 0.604454 5.02487 0.606777 5.0179C0.6091 5.01093 0.613556 5.00488 0.619516 5.00058C0.625475 4.99628 0.632635 4.99397 0.639981 4.99397H0.899981L0.981981 4.74696C0.984393 4.74014 0.988861 4.73424 0.994771 4.73006C1.00068 4.72588 1.00774 4.72363 1.01498 4.72363C1.02222 4.72363 1.02928 4.72588 1.03519 4.73006C1.0411 4.73424 1.04557 4.74014 1.04798 4.74696Z" fill="#F5F5F5"/>
<path d="M1.04798 6.03798L1.12998 6.28499H1.38998C1.39733 6.28499 1.40449 6.2873 1.41045 6.2916C1.4164 6.29589 1.42086 6.30195 1.42318 6.30891C1.42551 6.31588 1.42558 6.32342 1.42339 6.33043C1.4212 6.33744 1.41686 6.34358 1.41098 6.34799L1.20198 6.50299L1.28098 6.75099C1.28326 6.75803 1.28325 6.76561 1.28095 6.77264C1.27865 6.77968 1.27417 6.7858 1.26817 6.79013C1.26217 6.79446 1.25495 6.7968 1.24755 6.79677C1.24015 6.79674 1.23295 6.79436 1.22698 6.78998L1.01498 6.63899L0.802981 6.78998C0.797013 6.79436 0.78981 6.79674 0.782409 6.79677C0.775008 6.7968 0.767788 6.79446 0.761788 6.79013C0.755788 6.7858 0.751315 6.77968 0.749014 6.77264C0.746713 6.76561 0.746702 6.75803 0.748981 6.75099L0.82798 6.50299L0.618981 6.34799C0.613104 6.34358 0.608763 6.33744 0.606572 6.33043C0.604382 6.32342 0.604454 6.31588 0.606777 6.30891C0.6091 6.30195 0.613556 6.29589 0.619516 6.2916C0.625475 6.2873 0.632635 6.28499 0.639981 6.28499H0.899981L0.981981 6.03798C0.984393 6.03115 0.988861 6.02525 0.994771 6.02107C1.00068 6.01689 1.00774 6.01465 1.01498 6.01465C1.02222 6.01465 1.02928 6.01689 1.03519 6.02107C1.0411 6.02525 1.04557 6.03115 1.04798 6.03798Z" fill="#F5F5F5"/>
<path d="M2.04798 1.50381L2.12998 1.7508H2.38998C2.39733 1.7508 2.40449 1.75311 2.41045 1.75741C2.41641 1.7617 2.42086 1.76777 2.42318 1.77473C2.42551 1.7817 2.42558 1.78923 2.42339 1.79624C2.4212 1.80325 2.41686 1.8094 2.41098 1.8138L2.20198 1.9688L2.28098 2.2168C2.28326 2.22385 2.28325 2.23143 2.28095 2.23846C2.27864 2.2455 2.27417 2.25163 2.26817 2.25596C2.26217 2.26029 2.25495 2.26261 2.24755 2.26258C2.24015 2.26255 2.23295 2.26018 2.22698 2.25581L2.01498 2.1048L1.80298 2.25581C1.79701 2.26018 1.78981 2.26255 1.78241 2.26258C1.77501 2.26261 1.76779 2.26029 1.76179 2.25596C1.75579 2.25163 1.75131 2.2455 1.74901 2.23846C1.74671 2.23143 1.7467 2.22385 1.74898 2.2168L1.82798 1.9688L1.61898 1.8138C1.6131 1.8094 1.60876 1.80325 1.60657 1.79624C1.60438 1.78923 1.60445 1.7817 1.60678 1.77473C1.6091 1.76777 1.61356 1.7617 1.61951 1.75741C1.62547 1.75311 1.63263 1.7508 1.63998 1.7508H1.89998L1.98198 1.50381C1.98439 1.49698 1.98886 1.49107 1.99477 1.48689C2.00068 1.48271 2.00774 1.48047 2.01498 1.48047C2.02222 1.48047 2.02928 1.48271 2.03519 1.48689C2.0411 1.49107 2.04557 1.49698 2.04798 1.50381Z" fill="#F5F5F5"/>
<path d="M2.04798 2.79678L2.12998 3.04378H2.38998C2.39733 3.04378 2.40449 3.04609 2.41045 3.05038C2.41641 3.05468 2.42086 3.06075 2.42318 3.06772C2.42551 3.07469 2.42558 3.08221 2.42339 3.08922C2.4212 3.09623 2.41686 3.10237 2.41098 3.10678L2.20198 3.26178L2.28098 3.50978C2.28326 3.51682 2.28325 3.52441 2.28095 3.53145C2.27864 3.53848 2.27417 3.5446 2.26817 3.54893C2.26217 3.55327 2.25495 3.55558 2.24755 3.55556C2.24015 3.55553 2.23295 3.55316 2.22698 3.54878L2.01498 3.39778L1.80298 3.54878C1.79701 3.55316 1.78981 3.55553 1.78241 3.55556C1.77501 3.55558 1.76779 3.55327 1.76179 3.54893C1.75579 3.5446 1.75131 3.53848 1.74901 3.53145C1.74671 3.52441 1.7467 3.51682 1.74898 3.50978L1.82798 3.26178L1.61898 3.10678C1.6131 3.10237 1.60876 3.09623 1.60657 3.08922C1.60438 3.08221 1.60445 3.07469 1.60678 3.06772C1.6091 3.06075 1.61356 3.05468 1.61951 3.05038C1.62547 3.04609 1.63263 3.04378 1.63998 3.04378H1.89998L1.98198 2.79678C1.98439 2.78996 1.98886 2.78404 1.99477 2.77986C2.00068 2.77568 2.00774 2.77344 2.01498 2.77344C2.02222 2.77344 2.02928 2.77568 2.03519 2.77986C2.0411 2.78404 2.04557 2.78996 2.04798 2.79678Z" fill="#F5F5F5"/>
<path d="M2.04798 4.08778L2.12998 4.33479H2.38998C2.39733 4.33479 2.40449 4.3371 2.41045 4.3414C2.41641 4.3457 2.42086 4.35175 2.42318 4.35872C2.42551 4.36569 2.42558 4.37321 2.42339 4.38022C2.4212 4.38723 2.41686 4.39339 2.41098 4.3978L2.20198 4.5528L2.28098 4.8008C2.28326 4.80784 2.28325 4.81541 2.28095 4.82245C2.27864 4.82948 2.27417 4.8356 2.26817 4.83994C2.26217 4.84427 2.25495 4.8466 2.24755 4.84657C2.24015 4.84655 2.23295 4.84416 2.22698 4.83978L2.01498 4.6888L1.80298 4.83978C1.79701 4.84416 1.78981 4.84655 1.78241 4.84657C1.77501 4.8466 1.76779 4.84427 1.76179 4.83994C1.75579 4.8356 1.75131 4.82948 1.74901 4.82245C1.74671 4.81541 1.7467 4.80784 1.74898 4.8008L1.82798 4.5528L1.61898 4.3978C1.6131 4.39339 1.60876 4.38723 1.60657 4.38022C1.60438 4.37321 1.60445 4.36569 1.60678 4.35872C1.6091 4.35175 1.61356 4.3457 1.61951 4.3414C1.62547 4.3371 1.63263 4.33479 1.63998 4.33479H1.89998L1.98198 4.08778C1.98439 4.08096 1.98886 4.07506 1.99477 4.07088C2.00068 4.0667 2.00774 4.06445 2.01498 4.06445C2.02222 4.06445 2.02928 4.0667 2.03519 4.07088C2.0411 4.07506 2.04557 4.08096 2.04798 4.08778Z" fill="#F5F5F5"/>
<path d="M2.04798 5.37979L2.12998 5.62679H2.38998C2.39733 5.62679 2.40449 5.6291 2.41045 5.63339C2.41641 5.63769 2.42086 5.64376 2.42318 5.65073C2.42551 5.6577 2.42558 5.66521 2.42339 5.67223C2.4212 5.67924 2.41686 5.68538 2.41098 5.68979L2.20198 5.84479L2.28098 6.09279C2.28326 6.09983 2.28325 6.10742 2.28095 6.11446C2.27864 6.12149 2.27417 6.12761 2.26817 6.13194C2.26217 6.13628 2.25495 6.13859 2.24755 6.13857C2.24015 6.13854 2.23295 6.13617 2.22698 6.13179L2.01498 5.98079L1.80298 6.13179C1.79701 6.13617 1.78981 6.13854 1.78241 6.13857C1.77501 6.13859 1.76779 6.13628 1.76179 6.13194C1.75579 6.12761 1.75131 6.12149 1.74901 6.11446C1.74671 6.10742 1.7467 6.09983 1.74898 6.09279L1.82798 5.84479L1.61898 5.68979C1.6131 5.68538 1.60876 5.67924 1.60657 5.67223C1.60438 5.66521 1.60445 5.6577 1.60678 5.65073C1.6091 5.64376 1.61356 5.63769 1.61951 5.63339C1.62547 5.6291 1.63263 5.62679 1.63998 5.62679H1.89998L1.98198 5.37979C1.98439 5.37297 1.98886 5.36705 1.99477 5.36287C2.00068 5.35869 2.00774 5.35645 2.01498 5.35645C2.02222 5.35645 2.02928 5.35869 2.03519 5.36287C2.0411 5.36705 2.04557 5.37297 2.04798 5.37979Z" fill="#F5F5F5"/>
<path d="M3.05103 0.870987L3.13303 1.11799H3.39303C3.40038 1.11799 3.40754 1.1203 3.4135 1.1246C3.41946 1.12889 3.42391 1.13495 3.42624 1.14192C3.42856 1.14889 3.42863 1.15642 3.42644 1.16343C3.42425 1.17044 3.41991 1.17658 3.41403 1.18099L3.20503 1.33599L3.28403 1.58399C3.28631 1.59103 3.2863 1.59862 3.284 1.60565C3.2817 1.61269 3.27723 1.61881 3.27123 1.62315C3.26523 1.62748 3.258 1.6298 3.2506 1.62977C3.2432 1.62974 3.236 1.62737 3.23003 1.62299L3.01803 1.47199L2.80603 1.62299C2.80006 1.62737 2.79286 1.62974 2.78546 1.62977C2.77806 1.6298 2.77084 1.62748 2.76484 1.62315C2.75884 1.61881 2.75437 1.61269 2.75207 1.60565C2.74977 1.59862 2.74975 1.59103 2.75203 1.58399L2.83103 1.33599L2.62203 1.18099C2.61616 1.17658 2.61181 1.17044 2.60962 1.16343C2.60743 1.15642 2.60751 1.14889 2.60983 1.14192C2.61215 1.13495 2.61661 1.12889 2.62257 1.1246C2.62853 1.1203 2.63569 1.11799 2.64303 1.11799H2.90303L2.98503 0.870987C2.98744 0.864162 2.99191 0.85826 2.99782 0.85408C3.00373 0.849901 3.01079 0.847656 3.01803 0.847656C3.02527 0.847656 3.03233 0.849901 3.03824 0.85408C3.04415 0.85826 3.04862 0.864162 3.05103 0.870987Z" fill="#F5F5F5"/>
<path d="M3.05103 2.16202L3.13303 2.40901H3.39303C3.40038 2.40901 3.40754 2.41132 3.4135 2.41562C3.41946 2.41991 3.42391 2.42598 3.42624 2.43295C3.42856 2.43992 3.42863 2.44744 3.42644 2.45445C3.42425 2.46146 3.41991 2.46761 3.41403 2.47202L3.20503 2.62701L3.28403 2.87502C3.28631 2.88206 3.2863 2.88963 3.284 2.89667C3.2817 2.9037 3.27723 2.90984 3.27123 2.91417C3.26523 2.9185 3.258 2.92082 3.2506 2.92079C3.2432 2.92076 3.236 2.91839 3.23003 2.91402L3.01803 2.76302L2.80603 2.91402C2.80006 2.91839 2.79286 2.92076 2.78546 2.92079C2.77806 2.92082 2.77084 2.9185 2.76484 2.91417C2.75884 2.90984 2.75437 2.9037 2.75207 2.89667C2.74977 2.88963 2.74975 2.88206 2.75203 2.87502L2.83103 2.62701L2.62203 2.47202C2.61616 2.46761 2.61181 2.46146 2.60962 2.45445C2.60743 2.44744 2.60751 2.43992 2.60983 2.43295C2.61215 2.42598 2.61661 2.41991 2.62257 2.41562C2.62853 2.41132 2.63569 2.40901 2.64303 2.40901H2.90303L2.98503 2.16202C2.98744 2.15519 2.99191 2.14928 2.99782 2.1451C3.00373 2.14092 3.01079 2.13867 3.01803 2.13867C3.02527 2.13867 3.03233 2.14092 3.03824 2.1451C3.04415 2.14928 3.04862 2.15519 3.05103 2.16202Z" fill="#F5F5F5"/>
<path d="M3.05103 3.45303L3.13303 3.70003H3.39303C3.40038 3.70003 3.40754 3.70234 3.4135 3.70663C3.41946 3.71093 3.42391 3.717 3.42624 3.72397C3.42856 3.73094 3.42863 3.73846 3.42644 3.74547C3.42425 3.75248 3.41991 3.75862 3.41403 3.76303L3.20503 3.91803L3.28403 4.16603C3.28631 4.17307 3.2863 4.18065 3.284 4.18768C3.2817 4.19472 3.27723 4.20085 3.27123 4.20518C3.26523 4.20952 3.258 4.21183 3.2506 4.21181C3.2432 4.21178 3.236 4.20941 3.23003 4.20503L3.01803 4.05403L2.80603 4.20503C2.80006 4.20941 2.79286 4.21178 2.78546 4.21181C2.77806 4.21183 2.77084 4.20952 2.76484 4.20518C2.75884 4.20085 2.75437 4.19472 2.75207 4.18768C2.74977 4.18065 2.74975 4.17307 2.75203 4.16603L2.83103 3.91803L2.62203 3.76303C2.61616 3.75862 2.61181 3.75248 2.60962 3.74547C2.60743 3.73846 2.60751 3.73094 2.60983 3.72397C2.61215 3.717 2.61661 3.71093 2.62257 3.70663C2.62853 3.70234 2.63569 3.70003 2.64303 3.70003H2.90303L2.98503 3.45303C2.98744 3.44621 2.99191 3.44029 2.99782 3.43611C3.00373 3.43193 3.01079 3.42969 3.01803 3.42969C3.02527 3.42969 3.03233 3.43193 3.03824 3.43611C3.04415 3.44029 3.04862 3.44621 3.05103 3.45303Z" fill="#F5F5F5"/>
<path d="M3.05103 4.74696L3.13303 4.99397H3.39303C3.40038 4.99397 3.40754 4.99628 3.4135 5.00058C3.41946 5.00488 3.42391 5.01093 3.42624 5.0179C3.42856 5.02487 3.42863 5.03239 3.42644 5.0394C3.42425 5.04641 3.41991 5.05257 3.41403 5.05698L3.20503 5.21198L3.28403 5.45998C3.28631 5.46702 3.2863 5.47459 3.284 5.48163C3.2817 5.48866 3.27723 5.49478 3.27123 5.49911C3.26523 5.50345 3.258 5.50578 3.2506 5.50575C3.2432 5.50573 3.236 5.50334 3.23003 5.49896L3.01803 5.34798L2.80603 5.49896C2.80006 5.50334 2.79286 5.50573 2.78546 5.50575C2.77806 5.50578 2.77084 5.50345 2.76484 5.49911C2.75884 5.49478 2.75437 5.48866 2.75207 5.48163C2.74977 5.47459 2.74975 5.46702 2.75203 5.45998L2.83103 5.21198L2.62203 5.05698C2.61616 5.05257 2.61181 5.04641 2.60962 5.0394C2.60743 5.03239 2.60751 5.02487 2.60983 5.0179C2.61215 5.01093 2.61661 5.00488 2.62257 5.00058C2.62853 4.99628 2.63569 4.99397 2.64303 4.99397H2.90303L2.98503 4.74696C2.98744 4.74014 2.99191 4.73424 2.99782 4.73006C3.00373 4.72588 3.01079 4.72363 3.01803 4.72363C3.02527 4.72363 3.03233 4.72588 3.03824 4.73006C3.04415 4.73424 3.04862 4.74014 3.05103 4.74696Z" fill="#F5F5F5"/>
<path d="M3.05103 6.03798L3.13303 6.28499H3.39303C3.40038 6.28499 3.40754 6.2873 3.4135 6.2916C3.41946 6.29589 3.42391 6.30195 3.42624 6.30891C3.42856 6.31588 3.42863 6.32342 3.42644 6.33043C3.42425 6.33744 3.41991 6.34358 3.41403 6.34799L3.20503 6.50299L3.28403 6.75099C3.28631 6.75803 3.2863 6.76561 3.284 6.77264C3.2817 6.77968 3.27723 6.7858 3.27123 6.79013C3.26523 6.79446 3.258 6.7968 3.2506 6.79677C3.2432 6.79674 3.236 6.79436 3.23003 6.78998L3.01803 6.63899L2.80603 6.78998C2.80006 6.79436 2.79286 6.79674 2.78546 6.79677C2.77806 6.7968 2.77084 6.79446 2.76484 6.79013C2.75884 6.7858 2.75437 6.77968 2.75207 6.77264C2.74977 6.76561 2.74975 6.75803 2.75203 6.75099L2.83103 6.50299L2.62203 6.34799C2.61616 6.34358 2.61181 6.33744 2.60962 6.33043C2.60743 6.32342 2.60751 6.31588 2.60983 6.30891C2.61215 6.30195 2.61661 6.29589 2.62257 6.2916C2.62853 6.2873 2.63569 6.28499 2.64303 6.28499H2.90303L2.98503 6.03798C2.98744 6.03115 2.99191 6.02525 2.99782 6.02107C3.00373 6.01689 3.01079 6.01465 3.01803 6.01465C3.02527 6.01465 3.03233 6.01689 3.03824 6.02107C3.04415 6.02525 3.04862 6.03115 3.05103 6.03798Z" fill="#F5F5F5"/>
<path d="M4.05397 1.50381L4.13596 1.7508H4.39596C4.40331 1.7508 4.41047 1.75311 4.41643 1.75741C4.42239 1.7617 4.42684 1.76777 4.42917 1.77473C4.43149 1.7817 4.43156 1.78923 4.42937 1.79624C4.42718 1.80325 4.42284 1.8094 4.41697 1.8138L4.20797 1.9688L4.28696 2.2168C4.28924 2.22385 4.28923 2.23143 4.28693 2.23846C4.28463 2.2455 4.28016 2.25163 4.27416 2.25596C4.26816 2.26029 4.26094 2.26261 4.25354 2.26258C4.24614 2.26255 4.23893 2.26018 4.23296 2.25581L4.02096 2.1048L3.80896 2.25581C3.803 2.26018 3.7958 2.26255 3.7884 2.26258C3.78099 2.26261 3.77377 2.26029 3.76777 2.25596C3.76177 2.25163 3.75729 2.2455 3.75499 2.23846C3.75269 2.23143 3.75268 2.22385 3.75496 2.2168L3.83397 1.9688L3.62497 1.8138C3.61909 1.8094 3.61474 1.80325 3.61255 1.79624C3.61036 1.78923 3.61044 1.7817 3.61276 1.77473C3.61508 1.76777 3.61954 1.7617 3.6255 1.75741C3.63146 1.75311 3.63862 1.7508 3.64596 1.7508H3.90596L3.98797 1.50381C3.99038 1.49698 3.99484 1.49107 4.00075 1.48689C4.00666 1.48271 4.01372 1.48047 4.02096 1.48047C4.0282 1.48047 4.03526 1.48271 4.04117 1.48689C4.04708 1.49107 4.05156 1.49698 4.05397 1.50381Z" fill="#F5F5F5"/>
<path d="M4.05397 2.79678L4.13596 3.04378H4.39596C4.40331 3.04378 4.41047 3.04609 4.41643 3.05038C4.42239 3.05468 4.42684 3.06075 4.42917 3.06772C4.43149 3.07469 4.43156 3.08221 4.42937 3.08922C4.42718 3.09623 4.42284 3.10237 4.41697 3.10678L4.20797 3.26178L4.28696 3.50978C4.28924 3.51682 4.28923 3.52441 4.28693 3.53145C4.28463 3.53848 4.28016 3.5446 4.27416 3.54893C4.26816 3.55327 4.26094 3.55558 4.25354 3.55556C4.24614 3.55553 4.23893 3.55316 4.23296 3.54878L4.02096 3.39778L3.80896 3.54878C3.803 3.55316 3.7958 3.55553 3.7884 3.55556C3.78099 3.55558 3.77377 3.55327 3.76777 3.54893C3.76177 3.5446 3.75729 3.53848 3.75499 3.53145C3.75269 3.52441 3.75268 3.51682 3.75496 3.50978L3.83397 3.26178L3.62497 3.10678C3.61909 3.10237 3.61474 3.09623 3.61255 3.08922C3.61036 3.08221 3.61044 3.07469 3.61276 3.06772C3.61508 3.06075 3.61954 3.05468 3.6255 3.05038C3.63146 3.04609 3.63862 3.04378 3.64596 3.04378H3.90596L3.98797 2.79678C3.99038 2.78996 3.99484 2.78404 4.00075 2.77986C4.00666 2.77568 4.01372 2.77344 4.02096 2.77344C4.0282 2.77344 4.03526 2.77568 4.04117 2.77986C4.04708 2.78404 4.05156 2.78996 4.05397 2.79678Z" fill="#F5F5F5"/>
<path d="M4.05397 4.08778L4.13596 4.33479H4.39596C4.40331 4.33479 4.41047 4.3371 4.41643 4.3414C4.42239 4.3457 4.42684 4.35175 4.42917 4.35872C4.43149 4.36569 4.43156 4.37321 4.42937 4.38022C4.42718 4.38723 4.42284 4.39339 4.41697 4.3978L4.20797 4.5528L4.28696 4.8008C4.28924 4.80784 4.28923 4.81541 4.28693 4.82245C4.28463 4.82948 4.28016 4.8356 4.27416 4.83994C4.26816 4.84427 4.26094 4.8466 4.25354 4.84657C4.24614 4.84655 4.23893 4.84416 4.23296 4.83978L4.02096 4.6888L3.80896 4.83978C3.803 4.84416 3.7958 4.84655 3.7884 4.84657C3.78099 4.8466 3.77377 4.84427 3.76777 4.83994C3.76177 4.8356 3.75729 4.82948 3.75499 4.82245C3.75269 4.81541 3.75268 4.80784 3.75496 4.8008L3.83397 4.5528L3.62497 4.3978C3.61909 4.39339 3.61474 4.38723 3.61255 4.38022C3.61036 4.37321 3.61044 4.36569 3.61276 4.35872C3.61508 4.35175 3.61954 4.3457 3.6255 4.3414C3.63146 4.3371 3.63862 4.33479 3.64596 4.33479H3.90596L3.98797 4.08778C3.99038 4.08096 3.99484 4.07506 4.00075 4.07088C4.00666 4.0667 4.01372 4.06445 4.02096 4.06445C4.0282 4.06445 4.03526 4.0667 4.04117 4.07088C4.04708 4.07506 4.05156 4.08096 4.05397 4.08778Z" fill="#F5F5F5"/>
<path d="M4.05397 5.37979L4.13596 5.62679H4.39596C4.40331 5.62679 4.41047 5.6291 4.41643 5.63339C4.42239 5.63769 4.42684 5.64376 4.42917 5.65073C4.43149 5.6577 4.43156 5.66521 4.42937 5.67223C4.42718 5.67924 4.42284 5.68538 4.41697 5.68979L4.20797 5.84479L4.28696 6.09279C4.28924 6.09983 4.28923 6.10742 4.28693 6.11446C4.28463 6.12149 4.28016 6.12761 4.27416 6.13194C4.26816 6.13628 4.26094 6.13859 4.25354 6.13857C4.24614 6.13854 4.23893 6.13617 4.23296 6.13179L4.02096 5.98079L3.80896 6.13179C3.803 6.13617 3.7958 6.13854 3.7884 6.13857C3.78099 6.13859 3.77377 6.13628 3.76777 6.13194C3.76177 6.12761 3.75729 6.12149 3.75499 6.11446C3.75269 6.10742 3.75268 6.09983 3.75496 6.09279L3.83397 5.84479L3.62497 5.68979C3.61909 5.68538 3.61474 5.67924 3.61255 5.67223C3.61036 5.66521 3.61044 5.6577 3.61276 5.65073C3.61508 5.64376 3.61954 5.63769 3.6255 5.63339C3.63146 5.6291 3.63862 5.62679 3.64596 5.62679H3.90596L3.98797 5.37979C3.99038 5.37297 3.99484 5.36705 4.00075 5.36287C4.00666 5.35869 4.01372 5.35645 4.02096 5.35645C4.0282 5.35645 4.03526 5.35869 4.04117 5.36287C4.04708 5.36705 4.05156 5.37297 4.05397 5.37979Z" fill="#F5F5F5"/>
<path d="M5.05592 0.870987L5.13791 1.11799H5.39792C5.40526 1.11799 5.41243 1.1203 5.41838 1.1246C5.42434 1.12889 5.4288 1.13495 5.43112 1.14192C5.43344 1.14889 5.43351 1.15642 5.43132 1.16343C5.42913 1.17044 5.4248 1.17658 5.41892 1.18099L5.20992 1.33599L5.28891 1.58399C5.29119 1.59103 5.29118 1.59862 5.28888 1.60565C5.28658 1.61269 5.28211 1.61881 5.27611 1.62315C5.27011 1.62748 5.26289 1.6298 5.25549 1.62977C5.24809 1.62974 5.24088 1.62737 5.23491 1.62299L5.02292 1.47199L4.81092 1.62299C4.80495 1.62737 4.79775 1.62974 4.79035 1.62977C4.78295 1.6298 4.77573 1.62748 4.76973 1.62315C4.76373 1.61881 4.75925 1.61269 4.75695 1.60565C4.75465 1.59862 4.75464 1.59103 4.75692 1.58399L4.83592 1.33599L4.62692 1.18099C4.62104 1.17658 4.6167 1.17044 4.61451 1.16343C4.61232 1.15642 4.61239 1.14889 4.61471 1.14192C4.61704 1.13495 4.62149 1.12889 4.62745 1.1246C4.63341 1.1203 4.64057 1.11799 4.64792 1.11799H4.90792L4.98992 0.870987C4.99233 0.864162 4.99679 0.85826 5.00271 0.85408C5.00862 0.849901 5.01568 0.847656 5.02292 0.847656C5.03015 0.847656 5.03722 0.849901 5.04313 0.85408C5.04904 0.85826 5.05351 0.864162 5.05592 0.870987Z" fill="#F5F5F5"/>
<path d="M5.05592 2.16202L5.13791 2.40901H5.39792C5.40526 2.40901 5.41243 2.41132 5.41838 2.41562C5.42434 2.41991 5.4288 2.42598 5.43112 2.43295C5.43344 2.43992 5.43351 2.44744 5.43132 2.45445C5.42913 2.46146 5.4248 2.46761 5.41892 2.47202L5.20992 2.62701L5.28891 2.87502C5.29119 2.88206 5.29118 2.88963 5.28888 2.89667C5.28658 2.9037 5.28211 2.90984 5.27611 2.91417C5.27011 2.9185 5.26289 2.92082 5.25549 2.92079C5.24809 2.92076 5.24088 2.91839 5.23491 2.91402L5.02292 2.76302L4.81092 2.91402C4.80495 2.91839 4.79775 2.92076 4.79035 2.92079C4.78295 2.92082 4.77573 2.9185 4.76973 2.91417C4.76373 2.90984 4.75925 2.9037 4.75695 2.89667C4.75465 2.88963 4.75464 2.88206 4.75692 2.87502L4.83592 2.62701L4.62692 2.47202C4.62104 2.46761 4.6167 2.46146 4.61451 2.45445C4.61232 2.44744 4.61239 2.43992 4.61471 2.43295C4.61704 2.42598 4.62149 2.41991 4.62745 2.41562C4.63341 2.41132 4.64057 2.40901 4.64792 2.40901H4.90792L4.98992 2.16202C4.99233 2.15519 4.99679 2.14928 5.00271 2.1451C5.00862 2.14092 5.01568 2.13867 5.02292 2.13867C5.03015 2.13867 5.03722 2.14092 5.04313 2.1451C5.04904 2.14928 5.05351 2.15519 5.05592 2.16202Z" fill="#F5F5F5"/>
<path d="M5.05592 3.45303L5.13791 3.70003H5.39792C5.40526 3.70003 5.41243 3.70234 5.41838 3.70663C5.42434 3.71093 5.4288 3.717 5.43112 3.72397C5.43344 3.73094 5.43351 3.73846 5.43132 3.74547C5.42913 3.75248 5.4248 3.75862 5.41892 3.76303L5.20992 3.91803L5.28891 4.16603C5.29119 4.17307 5.29118 4.18065 5.28888 4.18768C5.28658 4.19472 5.28211 4.20085 5.27611 4.20518C5.27011 4.20952 5.26289 4.21183 5.25549 4.21181C5.24809 4.21178 5.24088 4.20941 5.23491 4.20503L5.02292 4.05403L4.81092 4.20503C4.80495 4.20941 4.79775 4.21178 4.79035 4.21181C4.78295 4.21183 4.77573 4.20952 4.76973 4.20518C4.76373 4.20085 4.75925 4.19472 4.75695 4.18768C4.75465 4.18065 4.75464 4.17307 4.75692 4.16603L4.83592 3.91803L4.62692 3.76303C4.62104 3.75862 4.6167 3.75248 4.61451 3.74547C4.61232 3.73846 4.61239 3.73094 4.61471 3.72397C4.61704 3.717 4.62149 3.71093 4.62745 3.70663C4.63341 3.70234 4.64057 3.70003 4.64792 3.70003H4.90792L4.98992 3.45303C4.99233 3.44621 4.99679 3.44029 5.00271 3.43611C5.00862 3.43193 5.01568 3.42969 5.02292 3.42969C5.03015 3.42969 5.03722 3.43193 5.04313 3.43611C5.04904 3.44029 5.05351 3.44621 5.05592 3.45303Z" fill="#F5F5F5"/>
<path d="M5.05592 4.74696L5.13791 4.99397H5.39792C5.40526 4.99397 5.41243 4.99628 5.41838 5.00058C5.42434 5.00488 5.4288 5.01093 5.43112 5.0179C5.43344 5.02487 5.43351 5.03239 5.43132 5.0394C5.42913 5.04641 5.4248 5.05257 5.41892 5.05698L5.20992 5.21198L5.28891 5.45998C5.29119 5.46702 5.29118 5.47459 5.28888 5.48163C5.28658 5.48866 5.28211 5.49478 5.27611 5.49911C5.27011 5.50345 5.26289 5.50578 5.25549 5.50575C5.24809 5.50573 5.24088 5.50334 5.23491 5.49896L5.02292 5.34798L4.81092 5.49896C4.80495 5.50334 4.79775 5.50573 4.79035 5.50575C4.78295 5.50578 4.77573 5.50345 4.76973 5.49911C4.76373 5.49478 4.75925 5.48866 4.75695 5.48163C4.75465 5.47459 4.75464 5.46702 4.75692 5.45998L4.83592 5.21198L4.62692 5.05698C4.62104 5.05257 4.6167 5.04641 4.61451 5.0394C4.61232 5.03239 4.61239 5.02487 4.61471 5.0179C4.61704 5.01093 4.62149 5.00488 4.62745 5.00058C4.63341 4.99628 4.64057 4.99397 4.64792 4.99397H4.90792L4.98992 4.74696C4.99233 4.74014 4.99679 4.73424 5.00271 4.73006C5.00862 4.72588 5.01568 4.72363 5.02292 4.72363C5.03015 4.72363 5.03722 4.72588 5.04313 4.73006C5.04904 4.73424 5.05351 4.74014 5.05592 4.74696Z" fill="#F5F5F5"/>
<path d="M5.05592 6.03798L5.13791 6.28499H5.39792C5.40526 6.28499 5.41243 6.2873 5.41838 6.2916C5.42434 6.29589 5.4288 6.30195 5.43112 6.30891C5.43344 6.31588 5.43351 6.32342 5.43132 6.33043C5.42913 6.33744 5.4248 6.34358 5.41892 6.34799L5.20992 6.50299L5.28891 6.75099C5.29119 6.75803 5.29118 6.76561 5.28888 6.77264C5.28658 6.77968 5.28211 6.7858 5.27611 6.79013C5.27011 6.79446 5.26289 6.7968 5.25549 6.79677C5.24809 6.79674 5.24088 6.79436 5.23491 6.78998L5.02292 6.63899L4.81092 6.78998C4.80495 6.79436 4.79775 6.79674 4.79035 6.79677C4.78295 6.7968 4.77573 6.79446 4.76973 6.79013C4.76373 6.7858 4.75925 6.77968 4.75695 6.77264C4.75465 6.76561 4.75464 6.75803 4.75692 6.75099L4.83592 6.50299L4.62692 6.34799C4.62104 6.34358 4.6167 6.33744 4.61451 6.33043C4.61232 6.32342 4.61239 6.31588 4.61471 6.30891C4.61704 6.30195 4.62149 6.29589 4.62745 6.2916C4.63341 6.2873 4.64057 6.28499 4.64792 6.28499H4.90792L4.98992 6.03798C4.99233 6.03115 4.99679 6.02525 5.00271 6.02107C5.00862 6.01689 5.01568 6.01465 5.02292 6.01465C5.03015 6.01465 5.03722 6.01689 5.04313 6.02107C5.04904 6.02525 5.05351 6.03115 5.05592 6.03798Z" fill="#F5F5F5"/>
<path d="M6.05896 1.50381L6.14096 1.7508H6.40097C6.40832 1.7508 6.41547 1.75311 6.42143 1.75741C6.42739 1.7617 6.43185 1.76777 6.43417 1.77473C6.4365 1.7817 6.43656 1.78923 6.43437 1.79624C6.43218 1.80325 6.42784 1.8094 6.42197 1.8138L6.21297 1.9688L6.29196 2.2168C6.29424 2.22385 6.29423 2.23143 6.29193 2.23846C6.28963 2.2455 6.28516 2.25163 6.27916 2.25596C6.27316 2.26029 6.26595 2.26261 6.25855 2.26258C6.25114 2.26255 6.24393 2.26018 6.23796 2.25581L6.02597 2.1048L5.81397 2.25581C5.808 2.26018 5.8008 2.26255 5.7934 2.26258C5.786 2.26261 5.77877 2.26029 5.77277 2.25596C5.76677 2.25163 5.7623 2.2455 5.76 2.23846C5.75769 2.23143 5.75769 2.22385 5.75996 2.2168L5.83896 1.9688L5.62996 1.8138C5.62408 1.8094 5.61974 1.80325 5.61755 1.79624C5.61536 1.78923 5.61544 1.7817 5.61777 1.77473C5.62009 1.76777 5.62453 1.7617 5.63049 1.75741C5.63645 1.75311 5.64363 1.7508 5.65097 1.7508H5.91097L5.99297 1.50381C5.99538 1.49698 5.99984 1.49107 6.00575 1.48689C6.01166 1.48271 6.01873 1.48047 6.02597 1.48047C6.03321 1.48047 6.04026 1.48271 6.04617 1.48689C6.05208 1.49107 6.05655 1.49698 6.05896 1.50381Z" fill="#F5F5F5"/>
<path d="M6.05896 2.79678L6.14096 3.04378H6.40097C6.40832 3.04378 6.41547 3.04609 6.42143 3.05038C6.42739 3.05468 6.43185 3.06075 6.43417 3.06772C6.4365 3.07469 6.43656 3.08221 6.43437 3.08922C6.43218 3.09623 6.42784 3.10237 6.42197 3.10678L6.21297 3.26178L6.29196 3.50978C6.29424 3.51682 6.29423 3.52441 6.29193 3.53145C6.28963 3.53848 6.28516 3.5446 6.27916 3.54893C6.27316 3.55327 6.26595 3.55558 6.25855 3.55556C6.25114 3.55553 6.24393 3.55316 6.23796 3.54878L6.02597 3.39778L5.81397 3.54878C5.808 3.55316 5.8008 3.55553 5.7934 3.55556C5.786 3.55558 5.77877 3.55327 5.77277 3.54893C5.76677 3.5446 5.7623 3.53848 5.76 3.53145C5.75769 3.52441 5.75769 3.51682 5.75996 3.50978L5.83896 3.26178L5.62996 3.10678C5.62408 3.10237 5.61974 3.09623 5.61755 3.08922C5.61536 3.08221 5.61544 3.07469 5.61777 3.06772C5.62009 3.06075 5.62453 3.05468 5.63049 3.05038C5.63645 3.04609 5.64363 3.04378 5.65097 3.04378H5.91097L5.99297 2.79678C5.99538 2.78996 5.99984 2.78404 6.00575 2.77986C6.01166 2.77568 6.01873 2.77344 6.02597 2.77344C6.03321 2.77344 6.04026 2.77568 6.04617 2.77986C6.05208 2.78404 6.05655 2.78996 6.05896 2.79678Z" fill="#F5F5F5"/>
<path d="M6.05896 4.08778L6.14096 4.33479H6.40097C6.40832 4.33479 6.41547 4.3371 6.42143 4.3414C6.42739 4.3457 6.43185 4.35175 6.43417 4.35872C6.4365 4.36569 6.43656 4.37321 6.43437 4.38022C6.43218 4.38723 6.42784 4.39339 6.42197 4.3978L6.21297 4.5528L6.29196 4.8008C6.29424 4.80784 6.29423 4.81541 6.29193 4.82245C6.28963 4.82948 6.28516 4.8356 6.27916 4.83994C6.27316 4.84427 6.26595 4.8466 6.25855 4.84657C6.25114 4.84655 6.24393 4.84416 6.23796 4.83978L6.02597 4.6888L5.81397 4.83978C5.808 4.84416 5.8008 4.84655 5.7934 4.84657C5.786 4.8466 5.77877 4.84427 5.77277 4.83994C5.76677 4.8356 5.7623 4.82948 5.76 4.82245C5.75769 4.81541 5.75769 4.80784 5.75996 4.8008L5.83896 4.5528L5.62996 4.3978C5.62408 4.39339 5.61974 4.38723 5.61755 4.38022C5.61536 4.37321 5.61544 4.36569 5.61777 4.35872C5.62009 4.35175 5.62453 4.3457 5.63049 4.3414C5.63645 4.3371 5.64363 4.33479 5.65097 4.33479H5.91097L5.99297 4.08778C5.99538 4.08096 5.99984 4.07506 6.00575 4.07088C6.01166 4.0667 6.01873 4.06445 6.02597 4.06445C6.03321 4.06445 6.04026 4.0667 6.04617 4.07088C6.05208 4.07506 6.05655 4.08096 6.05896 4.08778Z" fill="#F5F5F5"/>
<path d="M6.05896 5.37979L6.14096 5.62679H6.40097C6.40832 5.62679 6.41547 5.6291 6.42143 5.63339C6.42739 5.63769 6.43185 5.64376 6.43417 5.65073C6.4365 5.6577 6.43656 5.66521 6.43437 5.67223C6.43218 5.67924 6.42784 5.68538 6.42197 5.68979L6.21297 5.84479L6.29196 6.09279C6.29424 6.09983 6.29423 6.10742 6.29193 6.11446C6.28963 6.12149 6.28516 6.12761 6.27916 6.13194C6.27316 6.13628 6.26595 6.13859 6.25855 6.13857C6.25114 6.13854 6.24393 6.13617 6.23796 6.13179L6.02597 5.98079L5.81397 6.13179C5.808 6.13617 5.8008 6.13854 5.7934 6.13857C5.786 6.13859 5.77877 6.13628 5.77277 6.13194C5.76677 6.12761 5.7623 6.12149 5.76 6.11446C5.75769 6.10742 5.75769 6.09983 5.75996 6.09279L5.83896 5.84479L5.62996 5.68979C5.62408 5.68538 5.61974 5.67924 5.61755 5.67223C5.61536 5.66521 5.61544 5.6577 5.61777 5.65073C5.62009 5.64376 5.62453 5.63769 5.63049 5.63339C5.63645 5.6291 5.64363 5.62679 5.65097 5.62679H5.91097L5.99297 5.37979C5.99538 5.37297 5.99984 5.36705 6.00575 5.36287C6.01166 5.35869 6.01873 5.35645 6.02597 5.35645C6.03321 5.35645 6.04026 5.35869 6.04617 5.36287C6.05208 5.36705 6.05655 5.37297 6.05896 5.37979Z" fill="#F5F5F5"/>
<path d="M7.06202 0.870987L7.14402 1.11799H7.40401C7.41136 1.11799 7.41852 1.1203 7.42448 1.1246C7.43044 1.12889 7.43489 1.13495 7.43722 1.14192C7.43954 1.14889 7.43962 1.15642 7.43743 1.16343C7.43524 1.17044 7.4309 1.17658 7.42503 1.18099L7.21601 1.33599L7.29502 1.58399C7.2973 1.59103 7.29729 1.59862 7.29499 1.60565C7.29269 1.61269 7.28822 1.61881 7.28222 1.62315C7.27622 1.62748 7.26899 1.6298 7.26159 1.62977C7.25419 1.62974 7.24699 1.62737 7.24102 1.62299L7.02901 1.47199L6.81702 1.62299C6.81106 1.62737 6.80384 1.62974 6.79644 1.62977C6.78904 1.6298 6.78183 1.62748 6.77583 1.62315C6.76983 1.61881 6.76536 1.61269 6.76305 1.60565C6.76075 1.59862 6.76074 1.59103 6.76302 1.58399L6.84202 1.33599L6.63302 1.18099C6.62714 1.17658 6.6228 1.17044 6.62061 1.16343C6.61842 1.15642 6.61849 1.14889 6.62081 1.14192C6.62313 1.13495 6.62759 1.12889 6.63355 1.1246C6.63951 1.1203 6.64667 1.11799 6.65401 1.11799H6.91402L6.99603 0.870987C6.99844 0.864162 7.0029 0.85826 7.00881 0.85408C7.01472 0.849901 7.02178 0.847656 7.02901 0.847656C7.03625 0.847656 7.04332 0.849901 7.04923 0.85408C7.05514 0.85826 7.05961 0.864162 7.06202 0.870987Z" fill="#F5F5F5"/>
<path d="M7.06202 2.16202L7.14402 2.40901H7.40401C7.41136 2.40901 7.41852 2.41132 7.42448 2.41562C7.43044 2.41991 7.43489 2.42598 7.43722 2.43295C7.43954 2.43992 7.43962 2.44744 7.43743 2.45445C7.43524 2.46146 7.4309 2.46761 7.42503 2.47202L7.21601 2.62701L7.29502 2.87502C7.2973 2.88206 7.29729 2.88963 7.29499 2.89667C7.29269 2.9037 7.28822 2.90984 7.28222 2.91417C7.27622 2.9185 7.26899 2.92082 7.26159 2.92079C7.25419 2.92076 7.24699 2.91839 7.24102 2.91402L7.02901 2.76302L6.81702 2.91402C6.81106 2.91839 6.80384 2.92076 6.79644 2.92079C6.78904 2.92082 6.78183 2.9185 6.77583 2.91417C6.76983 2.90984 6.76536 2.9037 6.76305 2.89667C6.76075 2.88963 6.76074 2.88206 6.76302 2.87502L6.84202 2.62701L6.63302 2.47202C6.62714 2.46761 6.6228 2.46146 6.62061 2.45445C6.61842 2.44744 6.61849 2.43992 6.62081 2.43295C6.62313 2.42598 6.62759 2.41991 6.63355 2.41562C6.63951 2.41132 6.64667 2.40901 6.65401 2.40901H6.91402L6.99603 2.16202C6.99844 2.15519 7.0029 2.14928 7.00881 2.1451C7.01472 2.14092 7.02178 2.13867 7.02901 2.13867C7.03625 2.13867 7.04332 2.14092 7.04923 2.1451C7.05514 2.14928 7.05961 2.15519 7.06202 2.16202Z" fill="#F5F5F5"/>
<path d="M7.06202 3.45303L7.14402 3.70003H7.40401C7.41136 3.70003 7.41852 3.70234 7.42448 3.70663C7.43044 3.71093 7.43489 3.717 7.43722 3.72397C7.43954 3.73094 7.43962 3.73846 7.43743 3.74547C7.43524 3.75248 7.4309 3.75862 7.42503 3.76303L7.21601 3.91803L7.29502 4.16603C7.2973 4.17307 7.29729 4.18065 7.29499 4.18768C7.29269 4.19472 7.28822 4.20085 7.28222 4.20518C7.27622 4.20952 7.26899 4.21183 7.26159 4.21181C7.25419 4.21178 7.24699 4.20941 7.24102 4.20503L7.02901 4.05403L6.81702 4.20503C6.81106 4.20941 6.80384 4.21178 6.79644 4.21181C6.78904 4.21183 6.78183 4.20952 6.77583 4.20518C6.76983 4.20085 6.76536 4.19472 6.76305 4.18768C6.76075 4.18065 6.76074 4.17307 6.76302 4.16603L6.84202 3.91803L6.63302 3.76303C6.62714 3.75862 6.6228 3.75248 6.62061 3.74547C6.61842 3.73846 6.61849 3.73094 6.62081 3.72397C6.62313 3.717 6.62759 3.71093 6.63355 3.70663C6.63951 3.70234 6.64667 3.70003 6.65401 3.70003H6.91402L6.99603 3.45303C6.99844 3.44621 7.0029 3.44029 7.00881 3.43611C7.01472 3.43193 7.02178 3.42969 7.02901 3.42969C7.03625 3.42969 7.04332 3.43193 7.04923 3.43611C7.05514 3.44029 7.05961 3.44621 7.06202 3.45303Z" fill="#F5F5F5"/>
<path d="M7.06202 4.74696L7.14402 4.99397H7.40401C7.41136 4.99397 7.41852 4.99628 7.42448 5.00058C7.43044 5.00488 7.43489 5.01093 7.43722 5.0179C7.43954 5.02487 7.43962 5.03239 7.43743 5.0394C7.43524 5.04641 7.4309 5.05257 7.42503 5.05698L7.21601 5.21198L7.29502 5.45998C7.2973 5.46702 7.29729 5.47459 7.29499 5.48163C7.29269 5.48866 7.28822 5.49478 7.28222 5.49911C7.27622 5.50345 7.26899 5.50578 7.26159 5.50575C7.25419 5.50573 7.24699 5.50334 7.24102 5.49896L7.02901 5.34798L6.81702 5.49896C6.81106 5.50334 6.80384 5.50573 6.79644 5.50575C6.78904 5.50578 6.78183 5.50345 6.77583 5.49911C6.76983 5.49478 6.76536 5.48866 6.76305 5.48163C6.76075 5.47459 6.76074 5.46702 6.76302 5.45998L6.84202 5.21198L6.63302 5.05698C6.62714 5.05257 6.6228 5.04641 6.62061 5.0394C6.61842 5.03239 6.61849 5.02487 6.62081 5.0179C6.62313 5.01093 6.62759 5.00488 6.63355 5.00058C6.63951 4.99628 6.64667 4.99397 6.65401 4.99397H6.91402L6.99603 4.74696C6.99844 4.74014 7.0029 4.73424 7.00881 4.73006C7.01472 4.72588 7.02178 4.72363 7.02901 4.72363C7.03625 4.72363 7.04332 4.72588 7.04923 4.73006C7.05514 4.73424 7.05961 4.74014 7.06202 4.74696Z" fill="#F5F5F5"/>
<path d="M7.06202 6.03798L7.14402 6.28499H7.40401C7.41136 6.28499 7.41852 6.2873 7.42448 6.2916C7.43044 6.29589 7.43489 6.30195 7.43722 6.30891C7.43954 6.31588 7.43962 6.32342 7.43743 6.33043C7.43524 6.33744 7.4309 6.34358 7.42503 6.34799L7.21601 6.50299L7.29502 6.75099C7.2973 6.75803 7.29729 6.76561 7.29499 6.77264C7.29269 6.77968 7.28822 6.7858 7.28222 6.79013C7.27622 6.79446 7.26899 6.7968 7.26159 6.79677C7.25419 6.79674 7.24699 6.79436 7.24102 6.78998L7.02901 6.63899L6.81702 6.78998C6.81106 6.79436 6.80384 6.79674 6.79644 6.79677C6.78904 6.7968 6.78183 6.79446 6.77583 6.79013C6.76983 6.7858 6.76536 6.77968 6.76305 6.77264C6.76075 6.76561 6.76074 6.75803 6.76302 6.75099L6.84202 6.50299L6.63302 6.34799C6.62714 6.34358 6.6228 6.33744 6.62061 6.33043C6.61842 6.32342 6.61849 6.31588 6.62081 6.30891C6.62313 6.30195 6.62759 6.29589 6.63355 6.2916C6.63951 6.2873 6.64667 6.28499 6.65401 6.28499H6.91402L6.99603 6.03798C6.99844 6.03115 7.0029 6.02525 7.00881 6.02107C7.01472 6.01689 7.02178 6.01465 7.02901 6.01465C7.03625 6.01465 7.04332 6.01689 7.04923 6.02107C7.05514 6.02525 7.05961 6.03115 7.06202 6.03798Z" fill="#F5F5F5"/>
<path d="M8.06397 1.50381L8.14597 1.7508H8.40597C8.41331 1.7508 8.42047 1.75311 8.42643 1.75741C8.43239 1.7617 8.43685 1.76777 8.43917 1.77473C8.44149 1.7817 8.44157 1.78923 8.43938 1.79624C8.43719 1.80325 8.43286 1.8094 8.42698 1.8138L8.21798 1.9688L8.29697 2.2168C8.29925 2.22385 8.29924 2.23143 8.29694 2.23846C8.29464 2.2455 8.29017 2.25163 8.28417 2.25596C8.27817 2.26029 8.27094 2.26261 8.26354 2.26258C8.25614 2.26255 8.24894 2.26018 8.24297 2.25581L8.03097 2.1048L7.81898 2.25581C7.81301 2.26018 7.80579 2.26255 7.79839 2.26258C7.79099 2.26261 7.78378 2.26029 7.77778 2.25596C7.77178 2.25163 7.76731 2.2455 7.76501 2.23846C7.76271 2.23143 7.7627 2.22385 7.76498 2.2168L7.84397 1.9688L7.63497 1.8138C7.6291 1.8094 7.62476 1.80325 7.62257 1.79624C7.62038 1.78923 7.62044 1.7817 7.62276 1.77473C7.62509 1.76777 7.62955 1.7617 7.63551 1.75741C7.64147 1.75311 7.64862 1.7508 7.65597 1.7508H7.91598L7.99798 1.50381C8.00039 1.49698 8.00486 1.49107 8.01077 1.48689C8.01668 1.48271 8.02373 1.48047 8.03097 1.48047C8.03821 1.48047 8.04528 1.48271 8.05119 1.48689C8.0571 1.49107 8.06156 1.49698 8.06397 1.50381Z" fill="#F5F5F5"/>
<path d="M8.06397 2.79678L8.14597 3.04378H8.40597C8.41331 3.04378 8.42047 3.04609 8.42643 3.05038C8.43239 3.05468 8.43685 3.06075 8.43917 3.06772C8.44149 3.07469 8.44157 3.08221 8.43938 3.08922C8.43719 3.09623 8.43286 3.10237 8.42698 3.10678L8.21798 3.26178L8.29697 3.50978C8.29925 3.51682 8.29924 3.52441 8.29694 3.53145C8.29464 3.53848 8.29017 3.5446 8.28417 3.54893C8.27817 3.55327 8.27094 3.55558 8.26354 3.55556C8.25614 3.55553 8.24894 3.55316 8.24297 3.54878L8.03097 3.39778L7.81898 3.54878C7.81301 3.55316 7.80579 3.55553 7.79839 3.55556C7.79099 3.55558 7.78378 3.55327 7.77778 3.54893C7.77178 3.5446 7.76731 3.53848 7.76501 3.53145C7.76271 3.52441 7.7627 3.51682 7.76498 3.50978L7.84397 3.26178L7.63497 3.10678C7.6291 3.10237 7.62476 3.09623 7.62257 3.08922C7.62038 3.08221 7.62044 3.07469 7.62276 3.06772C7.62509 3.06075 7.62955 3.05468 7.63551 3.05038C7.64147 3.04609 7.64862 3.04378 7.65597 3.04378H7.91598L7.99798 2.79678C8.00039 2.78996 8.00486 2.78404 8.01077 2.77986C8.01668 2.77568 8.02373 2.77344 8.03097 2.77344C8.03821 2.77344 8.04528 2.77568 8.05119 2.77986C8.0571 2.78404 8.06156 2.78996 8.06397 2.79678Z" fill="#F5F5F5"/>
<path d="M8.06397 4.08778L8.14597 4.33479H8.40597C8.41331 4.33479 8.42047 4.3371 8.42643 4.3414C8.43239 4.3457 8.43685 4.35175 8.43917 4.35872C8.44149 4.36569 8.44157 4.37321 8.43938 4.38022C8.43719 4.38723 8.43286 4.39339 8.42698 4.3978L8.21798 4.5528L8.29697 4.8008C8.29925 4.80784 8.29924 4.81541 8.29694 4.82245C8.29464 4.82948 8.29017 4.8356 8.28417 4.83994C8.27817 4.84427 8.27094 4.8466 8.26354 4.84657C8.25614 4.84655 8.24894 4.84416 8.24297 4.83978L8.03097 4.6888L7.81898 4.83978C7.81301 4.84416 7.80579 4.84655 7.79839 4.84657C7.79099 4.8466 7.78378 4.84427 7.77778 4.83994C7.77178 4.8356 7.76731 4.82948 7.76501 4.82245C7.76271 4.81541 7.7627 4.80784 7.76498 4.8008L7.84397 4.5528L7.63497 4.3978C7.6291 4.39339 7.62476 4.38723 7.62257 4.38022C7.62038 4.37321 7.62044 4.36569 7.62276 4.35872C7.62509 4.35175 7.62955 4.3457 7.63551 4.3414C7.64147 4.3371 7.64862 4.33479 7.65597 4.33479H7.91598L7.99798 4.08778C8.00039 4.08096 8.00486 4.07506 8.01077 4.07088C8.01668 4.0667 8.02373 4.06445 8.03097 4.06445C8.03821 4.06445 8.04528 4.0667 8.05119 4.07088C8.0571 4.07506 8.06156 4.08096 8.06397 4.08778Z" fill="#F5F5F5"/>
<path d="M8.06397 5.37979L8.14597 5.62679H8.40597C8.41331 5.62679 8.42047 5.6291 8.42643 5.63339C8.43239 5.63769 8.43685 5.64376 8.43917 5.65073C8.44149 5.6577 8.44157 5.66521 8.43938 5.67223C8.43719 5.67924 8.43286 5.68538 8.42698 5.68979L8.21798 5.84479L8.29697 6.09279C8.29925 6.09983 8.29924 6.10742 8.29694 6.11446C8.29464 6.12149 8.29017 6.12761 8.28417 6.13194C8.27817 6.13628 8.27094 6.13859 8.26354 6.13857C8.25614 6.13854 8.24894 6.13617 8.24297 6.13179L8.03097 5.98079L7.81898 6.13179C7.81301 6.13617 7.80579 6.13854 7.79839 6.13857C7.79099 6.13859 7.78378 6.13628 7.77778 6.13194C7.77178 6.12761 7.76731 6.12149 7.76501 6.11446C7.76271 6.10742 7.7627 6.09983 7.76498 6.09279L7.84397 5.84479L7.63497 5.68979C7.6291 5.68538 7.62476 5.67924 7.62257 5.67223C7.62038 5.66521 7.62044 5.6577 7.62276 5.65073C7.62509 5.64376 7.62955 5.63769 7.63551 5.63339C7.64147 5.6291 7.64862 5.62679 7.65597 5.62679H7.91598L7.99798 5.37979C8.00039 5.37297 8.00486 5.36705 8.01077 5.36287C8.01668 5.35869 8.02373 5.35645 8.03097 5.35645C8.03821 5.35645 8.04528 5.35869 8.05119 5.36287C8.0571 5.36705 8.06156 5.37297 8.06397 5.37979Z" fill="#F5F5F5"/>
<path d="M9.06703 0.870987L9.14903 1.11799H9.40903C9.41637 1.11799 9.42353 1.1203 9.42949 1.1246C9.43545 1.12889 9.43991 1.13495 9.44223 1.14192C9.44455 1.14889 9.44462 1.15642 9.44243 1.16343C9.44024 1.17044 9.4359 1.17658 9.43002 1.18099L9.22102 1.33599L9.30002 1.58399C9.3023 1.59103 9.30229 1.59862 9.29999 1.60565C9.29769 1.61269 9.29322 1.61881 9.28722 1.62315C9.28122 1.62748 9.274 1.6298 9.2666 1.62977C9.2592 1.62974 9.252 1.62737 9.24603 1.62299L9.03403 1.47199L8.82202 1.62299C8.81605 1.62737 8.80885 1.62974 8.80145 1.62977C8.79405 1.6298 8.78684 1.62748 8.78084 1.62315C8.77484 1.61881 8.77037 1.61269 8.76807 1.60565C8.76577 1.59862 8.76574 1.59103 8.76802 1.58399L8.84703 1.33599L8.63803 1.18099C8.63215 1.17658 8.6278 1.17044 8.62561 1.16343C8.62342 1.15642 8.6235 1.14889 8.62582 1.14192C8.62815 1.13495 8.63261 1.12889 8.63857 1.1246C8.64452 1.1203 8.65168 1.11799 8.65903 1.11799H8.91902L9.00102 0.870987C9.00343 0.864162 9.0079 0.85826 9.01381 0.85408C9.01972 0.849901 9.02679 0.847656 9.03403 0.847656C9.04127 0.847656 9.04832 0.849901 9.05423 0.85408C9.06014 0.85826 9.06462 0.864162 9.06703 0.870987Z" fill="#F5F5F5"/>
<path d="M9.06703 2.16202L9.14903 2.40901H9.40903C9.41637 2.40901 9.42353 2.41132 9.42949 2.41562C9.43545 2.41991 9.43991 2.42598 9.44223 2.43295C9.44455 2.43992 9.44462 2.44744 9.44243 2.45445C9.44024 2.46146 9.4359 2.46761 9.43002 2.47202L9.22102 2.62701L9.30002 2.87502C9.3023 2.88206 9.30229 2.88963 9.29999 2.89667C9.29769 2.9037 9.29322 2.90984 9.28722 2.91417C9.28122 2.9185 9.274 2.92082 9.2666 2.92079C9.2592 2.92076 9.252 2.91839 9.24603 2.91402L9.03403 2.76302L8.82202 2.91402C8.81605 2.91839 8.80885 2.92076 8.80145 2.92079C8.79405 2.92082 8.78684 2.9185 8.78084 2.91417C8.77484 2.90984 8.77037 2.9037 8.76807 2.89667C8.76577 2.88963 8.76574 2.88206 8.76802 2.87502L8.84703 2.62701L8.63803 2.47202C8.63215 2.46761 8.6278 2.46146 8.62561 2.45445C8.62342 2.44744 8.6235 2.43992 8.62582 2.43295C8.62815 2.42598 8.63261 2.41991 8.63857 2.41562C8.64452 2.41132 8.65168 2.40901 8.65903 2.40901H8.91902L9.00102 2.16202C9.00343 2.15519 9.0079 2.14928 9.01381 2.1451C9.01972 2.14092 9.02679 2.13867 9.03403 2.13867C9.04127 2.13867 9.04832 2.14092 9.05423 2.1451C9.06014 2.14928 9.06462 2.15519 9.06703 2.16202Z" fill="#F5F5F5"/>
<path d="M9.06703 3.45303L9.14903 3.70003H9.40903C9.41637 3.70003 9.42353 3.70234 9.42949 3.70663C9.43545 3.71093 9.43991 3.717 9.44223 3.72397C9.44455 3.73094 9.44462 3.73846 9.44243 3.74547C9.44024 3.75248 9.4359 3.75862 9.43002 3.76303L9.22102 3.91803L9.30002 4.16603C9.3023 4.17307 9.30229 4.18065 9.29999 4.18768C9.29769 4.19472 9.29322 4.20085 9.28722 4.20518C9.28122 4.20952 9.274 4.21183 9.2666 4.21181C9.2592 4.21178 9.252 4.20941 9.24603 4.20503L9.03403 4.05403L8.82202 4.20503C8.81605 4.20941 8.80885 4.21178 8.80145 4.21181C8.79405 4.21183 8.78684 4.20952 8.78084 4.20518C8.77484 4.20085 8.77037 4.19472 8.76807 4.18768C8.76577 4.18065 8.76574 4.17307 8.76802 4.16603L8.84703 3.91803L8.63803 3.76303C8.63215 3.75862 8.6278 3.75248 8.62561 3.74547C8.62342 3.73846 8.6235 3.73094 8.62582 3.72397C8.62815 3.717 8.63261 3.71093 8.63857 3.70663C8.64452 3.70234 8.65168 3.70003 8.65903 3.70003H8.91902L9.00102 3.45303C9.00343 3.44621 9.0079 3.44029 9.01381 3.43611C9.01972 3.43193 9.02679 3.42969 9.03403 3.42969C9.04127 3.42969 9.04832 3.43193 9.05423 3.43611C9.06014 3.44029 9.06462 3.44621 9.06703 3.45303Z" fill="#F5F5F5"/>
<path d="M9.06703 4.74696L9.14903 4.99397H9.40903C9.41637 4.99397 9.42353 4.99628 9.42949 5.00058C9.43545 5.00488 9.43991 5.01093 9.44223 5.0179C9.44455 5.02487 9.44462 5.03239 9.44243 5.0394C9.44024 5.04641 9.4359 5.05257 9.43002 5.05698L9.22102 5.21198L9.30002 5.45998C9.3023 5.46702 9.30229 5.47459 9.29999 5.48163C9.29769 5.48866 9.29322 5.49478 9.28722 5.49911C9.28122 5.50345 9.274 5.50578 9.2666 5.50575C9.2592 5.50573 9.252 5.50334 9.24603 5.49896L9.03403 5.34798L8.82202 5.49896C8.81605 5.50334 8.80885 5.50573 8.80145 5.50575C8.79405 5.50578 8.78684 5.50345 8.78084 5.49911C8.77484 5.49478 8.77037 5.48866 8.76807 5.48163C8.76577 5.47459 8.76574 5.46702 8.76802 5.45998L8.84703 5.21198L8.63803 5.05698C8.63215 5.05257 8.6278 5.04641 8.62561 5.0394C8.62342 5.03239 8.6235 5.02487 8.62582 5.0179C8.62815 5.01093 8.63261 5.00488 8.63857 5.00058C8.64452 4.99628 8.65168 4.99397 8.65903 4.99397H8.91902L9.00102 4.74696C9.00343 4.74014 9.0079 4.73424 9.01381 4.73006C9.01972 4.72588 9.02679 4.72363 9.03403 4.72363C9.04127 4.72363 9.04832 4.72588 9.05423 4.73006C9.06014 4.73424 9.06462 4.74014 9.06703 4.74696Z" fill="#F5F5F5"/>
<path d="M9.06703 6.03798L9.14903 6.28499H9.40903C9.41637 6.28499 9.42353 6.2873 9.42949 6.2916C9.43545 6.29589 9.43991 6.30195 9.44223 6.30891C9.44455 6.31588 9.44462 6.32342 9.44243 6.33043C9.44024 6.33744 9.4359 6.34358 9.43002 6.34799L9.22102 6.50299L9.30002 6.75099C9.3023 6.75803 9.30229 6.76561 9.29999 6.77264C9.29769 6.77968 9.29322 6.7858 9.28722 6.79013C9.28122 6.79446 9.274 6.7968 9.2666 6.79677C9.2592 6.79674 9.252 6.79436 9.24603 6.78998L9.03403 6.63899L8.82202 6.78998C8.81605 6.79436 8.80885 6.79674 8.80145 6.79677C8.79405 6.7968 8.78684 6.79446 8.78084 6.79013C8.77484 6.7858 8.77037 6.77968 8.76807 6.77264C8.76577 6.76561 8.76574 6.75803 8.76802 6.75099L8.84703 6.50299L8.63803 6.34799C8.63215 6.34358 8.6278 6.33744 8.62561 6.33043C8.62342 6.32342 8.6235 6.31588 8.62582 6.30891C8.62815 6.30195 8.63261 6.29589 8.63857 6.2916C8.64452 6.2873 8.65168 6.28499 8.65903 6.28499H8.91902L9.00102 6.03798C9.00343 6.03115 9.0079 6.02525 9.01381 6.02107C9.01972 6.01689 9.02679 6.01465 9.03403 6.01465C9.04127 6.01465 9.04832 6.01689 9.05423 6.02107C9.06014 6.02525 9.06462 6.03115 9.06703 6.03798Z" fill="#F5F5F5"/>
</g>
<defs>
<clipPath id="clip0_1_758">
<rect width="21.577" height="14.137" fill="white" transform="translate(0 0.0166016)"/>
</clipPath>
</defs>
</svg>
