<svg width="367" height="69" viewBox="0 0 367 69" fill="none" xmlns="http://www.w3.org/2000/svg">
<path d="M23.6731 68.2147H46.1146V51.6292L40.641 46.279H29.0098L23.6731 51.6292V68.2147ZM52.6828 23.1395L47.3461 28.3559V39.8588L52.6828 45.0752H69.7876V23.1395H52.6828ZM46.1146 0H23.6731V16.7193L29.0098 21.9357H40.641L46.1146 16.7193V0ZM69.7876 68.2147V51.6292L64.4509 46.279H47.3461V68.2147H69.7876ZM5.3367 0L0 5.21642V21.9357H22.4415V0H5.3367ZM47.3461 0V16.7193L52.6828 21.9357H69.7876V0H47.3461ZM34.8938 37.3175C33.1149 37.3175 31.7465 35.8462 31.7465 34.2411C31.7465 32.5023 33.2517 31.1648 34.8938 31.1648C36.6727 31.1648 38.0411 32.6361 38.0411 34.2411C38.0411 35.8462 36.6727 37.3175 34.8938 37.3175ZM22.4415 23.1395H0V45.0752H16.968L22.4415 39.8588V23.1395ZM22.4415 51.6292L16.968 46.279H0V68.2147H16.968L22.4415 62.9983V51.6292Z" fill="#40BAC8"/>
<path d="M117.817 51.629C117.407 51.629 117.27 51.4953 117.133 51.094L111.523 31.6996H111.386L105.775 51.094C105.638 51.4953 105.502 51.629 105.091 51.629H98.5229C98.1124 51.629 97.9755 51.4953 97.8387 51.094L88.26 17.3879C88.26 17.1204 88.26 16.8529 88.6705 16.8529H97.2913C97.7019 16.8529 97.9755 17.1204 97.9755 17.3879L102.491 37.5848H102.628L108.102 17.3879C108.238 16.9867 108.375 16.8529 108.786 16.8529H114.122C114.533 16.8529 114.67 16.9867 114.807 17.3879L120.554 37.5848H120.691L125.07 17.3879C125.07 17.1204 125.343 16.8529 125.754 16.8529H134.375C134.648 16.8529 134.785 17.1204 134.785 17.3879L125.206 51.094C125.07 51.4953 124.933 51.629 124.522 51.629H117.817ZM141.627 51.629C141.353 51.629 141.08 51.3615 141.08 51.094V17.3879C141.08 17.1204 141.353 16.8529 141.627 16.8529H155.858C164.479 16.8529 168.995 21.6681 168.995 28.3558C168.995 35.0435 164.479 39.9924 155.858 39.9924H150.658C150.385 39.9924 150.385 40.1261 150.385 40.2599V50.9602C150.385 51.2277 150.111 51.4953 149.837 51.4953H141.627V51.629ZM159.827 28.4895C159.827 26.0819 158.184 24.6106 155.311 24.6106H150.658C150.385 24.6106 150.385 24.7444 150.385 24.8782V32.1009C150.385 32.3684 150.521 32.3684 150.658 32.3684H155.311C158.184 32.3684 159.827 30.7633 159.827 28.4895ZM181.173 43.0687C180.489 41.1962 180.215 38.9224 180.215 34.3747C180.215 29.9608 180.626 27.5532 181.173 25.6807C182.952 20.1968 187.331 17.3879 192.941 17.3879C198.689 17.3879 202.931 20.1968 204.71 25.6807C205.394 27.5532 205.667 29.6933 205.667 33.8397C205.667 34.241 205.394 34.5085 204.846 34.5085H182.542C182.268 34.5085 182.131 34.776 182.131 35.0435C182.131 38.6548 182.405 40.6612 182.952 42.4C184.594 47.3489 188.289 49.4889 193.215 49.4889C197.868 49.4889 201.289 47.4826 203.341 44.8075C203.615 44.4063 204.025 44.4063 204.299 44.6738L204.71 45.0751C205.12 45.3426 205.12 45.7438 204.846 46.0113C202.52 49.2214 198.552 51.4953 193.352 51.4953C187.194 51.4953 183.089 48.6864 181.173 43.0687ZM203.341 32.6359C203.615 32.6359 203.752 32.5021 203.752 32.2346C203.752 29.9608 203.478 28.0883 202.931 26.4832C201.425 21.8018 197.868 19.3942 193.078 19.3942C188.289 19.3942 184.731 21.668 183.226 26.4832C182.679 28.0883 182.405 29.8271 182.405 32.2346C182.405 32.5021 182.542 32.6359 182.815 32.6359H203.341ZM237.414 50.8265C237.003 50.8265 236.73 50.559 236.73 50.1577V30.6296C236.73 22.8718 233.446 19.528 227.014 19.528C221.404 19.528 216.751 23.2731 216.751 29.6933V50.2915C216.751 50.6927 216.478 50.9602 216.067 50.9602H215.383C214.972 50.9602 214.699 50.6927 214.699 50.2915V18.993C214.699 18.5917 214.972 18.3242 215.383 18.3242H216.067C216.478 18.3242 216.751 18.5917 216.751 18.993V23.5406H216.888C218.53 19.7955 222.362 17.5217 227.151 17.5217C234.677 17.5217 238.919 21.668 238.919 30.0946V50.1577C238.919 50.559 238.645 50.8265 238.235 50.8265H237.414ZM248.908 59.253C248.635 58.8517 248.635 58.4505 249.045 58.3167L249.593 57.9155C250.003 57.648 250.277 57.7817 250.55 58.183C252.466 60.5905 255.34 62.0618 259.445 62.0618C265.739 62.0618 269.845 58.9855 269.845 50.9602V45.4763H269.708C268.066 49.0877 265.192 51.629 259.308 51.629C253.698 51.629 249.866 48.6864 248.224 43.8713C247.403 41.5974 247.129 38.6548 247.129 34.6422C247.129 30.6296 247.54 27.687 248.224 25.4132C249.866 20.598 253.698 17.6554 259.308 17.6554C265.192 17.6554 268.066 20.1968 269.708 23.8081H269.845V19.1267C269.845 18.7255 270.118 18.4579 270.529 18.4579H271.213C271.624 18.4579 271.897 18.7255 271.897 19.1267V51.094C271.897 60.0555 266.971 64.0682 259.308 64.0682C254.519 63.9344 250.55 61.7943 248.908 59.253ZM268.887 43.0687C269.571 41.0624 269.845 38.6548 269.845 34.5085C269.845 30.4958 269.571 27.9545 268.887 25.9482C267.245 21.133 263.687 19.3942 259.582 19.3942C255.066 19.3942 251.782 21.5343 250.414 25.8144C249.729 27.8207 249.319 30.6296 249.319 34.3747C249.319 38.1198 249.729 40.9287 250.414 42.935C251.919 47.2151 255.066 49.3552 259.582 49.3552C263.687 49.6227 267.382 47.8839 268.887 43.0687ZM283.392 8.15887C282.981 8.15887 282.707 7.89136 282.707 7.4901V4.81501C282.707 4.41375 282.981 4.14624 283.392 4.14624H285.034C285.444 4.14624 285.718 4.41375 285.718 4.81501V7.62385C285.718 8.02511 285.444 8.29262 285.034 8.29262H283.392V8.15887ZM283.939 50.8265C283.528 50.8265 283.255 50.559 283.255 50.1577V18.993C283.255 18.5917 283.528 18.3242 283.939 18.3242H284.623C285.034 18.3242 285.307 18.5917 285.307 18.993V50.1577C285.307 50.559 285.034 50.8265 284.623 50.8265H283.939ZM319.38 50.8265C318.97 50.8265 318.696 50.559 318.696 50.1577V30.6296C318.696 22.8718 315.412 19.528 308.98 19.528C303.37 19.528 298.718 23.2731 298.718 29.6933V50.2915C298.718 50.6927 298.444 50.9602 298.033 50.9602H297.349C296.939 50.9602 296.665 50.6927 296.665 50.2915V18.993C296.665 18.5917 296.939 18.3242 297.349 18.3242H298.033C298.444 18.3242 298.718 18.5917 298.718 18.993V23.5406H298.854C300.496 19.7955 304.328 17.5217 309.117 17.5217C316.643 17.5217 320.885 21.668 320.885 30.0946V50.1577C320.885 50.559 320.612 50.8265 320.201 50.8265H319.38ZM330.19 43.0687C329.506 41.1962 329.233 38.9224 329.233 34.3747C329.233 29.9608 329.643 27.5532 330.19 25.6807C331.969 20.1968 336.348 17.3879 341.958 17.3879C347.706 17.3879 351.948 20.1968 353.727 25.6807C354.411 27.5532 354.684 29.6933 354.684 33.8397C354.684 34.241 354.411 34.5085 353.863 34.5085H331.559C331.285 34.5085 331.148 34.776 331.148 35.0435C331.148 38.6548 331.422 40.6612 331.969 42.4C333.611 47.3489 337.306 49.4889 342.232 49.4889C346.885 49.4889 350.306 47.4826 352.358 44.8075C352.632 44.4063 353.042 44.4063 353.316 44.6738L353.727 45.0751C354.137 45.3426 354.137 45.7438 353.863 46.0113C351.537 49.2214 347.569 51.4953 342.369 51.4953C336.211 51.4953 331.969 48.6864 330.19 43.0687ZM352.221 32.6359C352.495 32.6359 352.632 32.5021 352.632 32.2346C352.632 29.9608 352.358 28.0883 351.811 26.4832C350.306 21.8018 346.748 19.3942 341.958 19.3942C337.169 19.3942 333.611 21.668 332.106 26.4832C331.559 28.0883 331.285 29.8271 331.285 32.2346C331.285 32.5021 331.422 32.6359 331.696 32.6359H352.221ZM358.79 21.5343C358.79 19.2605 360.568 17.5217 362.895 17.5217C365.221 17.5217 367 19.2605 367 21.5343C367 23.8081 365.221 25.5469 362.895 25.5469C360.568 25.5469 358.79 23.8081 358.79 21.5343ZM366.316 21.5343C366.316 19.528 364.81 18.1904 362.895 18.1904C360.842 18.1904 359.474 19.6617 359.474 21.5343C359.474 23.5406 360.979 24.8782 362.895 24.8782C364.81 24.8782 366.316 23.5406 366.316 21.5343ZM361.526 23.8081C361.39 23.8081 361.39 23.8081 361.39 23.6744V19.528C361.39 19.3942 361.39 19.3942 361.526 19.3942H363.168C364.126 19.3942 364.674 19.9292 364.674 20.7318C364.674 21.2668 364.4 21.8018 363.716 21.9356L364.674 23.6744C364.811 23.8081 364.674 23.9419 364.537 23.9419H364.126C363.99 23.9419 363.989 23.8081 363.853 23.8081L362.895 22.0693H361.937V23.6744C361.937 23.8081 361.8 23.8081 361.8 23.8081H361.526ZM363.989 20.598C363.989 20.1968 363.716 19.9292 363.168 19.9292H362.074V21.2668H363.168C363.716 21.2668 363.989 20.9993 363.989 20.598Z" fill="#162A33"/>
</svg>
