<svg width="61" height="75" viewBox="0 0 61 75" fill="none" xmlns="http://www.w3.org/2000/svg">
<path d="M39.453 16.4964C39.4529 16.9745 39.5986 17.4413 39.8707 17.8342C40.1427 18.2271 40.5281 18.5273 40.9752 18.6947L32.4271 27.2555V18.8425C32.427 18.3785 32.2896 17.925 32.0323 17.5393C31.7749 17.1536 31.4092 16.853 30.9813 16.6754C30.5535 16.4979 30.0826 16.4515 29.6284 16.5419C29.1742 16.6324 28.7569 16.8558 28.4294 17.1838L12.0358 33.6063C11.8121 33.8228 11.6337 34.0816 11.5109 34.3679C11.3882 34.6541 11.3236 34.9619 11.3209 35.2735C11.3182 35.585 11.3774 35.8939 11.4952 36.1822C11.6129 36.4705 11.7868 36.7325 12.0067 36.9528C12.2266 37.173 12.4881 37.3472 12.7759 37.4652C13.0637 37.5832 13.3721 37.6425 13.6831 37.6398C13.994 37.6371 14.3014 37.5724 14.5871 37.4494C14.8728 37.3265 15.1312 37.1478 15.3473 36.9237L27.7432 24.5059V32.9189C27.7433 33.3829 27.8807 33.8364 28.1381 34.2221C28.3954 34.6078 28.7611 34.9084 29.189 35.086C29.6169 35.2635 30.0877 35.3099 30.5419 35.2195C30.9962 35.129 31.4134 34.9056 31.7409 34.5776L44.2844 22.012C44.4763 22.5277 44.8431 22.9594 45.3206 23.2315C45.798 23.5037 46.3559 23.5991 46.8964 23.501C47.437 23.4028 47.9259 23.1175 48.2777 22.6947C48.6295 22.272 48.8217 21.7389 48.8208 21.1885V16.4964C48.8208 15.8742 48.574 15.2774 48.1348 14.8375C47.6956 14.3975 47.1 14.1503 46.4788 14.1503H41.7949C41.1738 14.1503 40.5781 14.3975 40.1389 14.8375C39.6997 15.2774 39.453 15.8742 39.453 16.4964ZM16.0335 44.6493C16.6546 44.6493 17.2503 44.8965 17.6895 45.3365C18.1287 45.7764 18.3754 46.3732 18.3754 46.9954V56.3797C18.3754 57.0019 18.1287 57.5987 17.6895 58.0386C17.2503 58.4786 16.6546 58.7258 16.0335 58.7258C15.4123 58.7258 14.8167 58.4786 14.3775 58.0386C13.9383 57.5987 13.6915 57.0019 13.6915 56.3797V46.9954C13.6915 46.3732 13.9383 45.7764 14.3775 45.3365C14.8167 44.8965 15.4123 44.6493 16.0335 44.6493Z" fill="#1F2278"/>
<path d="M25.684 35.1417C25.0648 35.1417 24.4709 35.3902 24.033 35.8325C23.5951 36.2748 23.3491 36.8747 23.3491 37.5002V56.3681C23.3491 56.9936 23.5951 57.5935 24.033 58.0358C24.4709 58.4781 25.0648 58.7266 25.684 58.7266C26.3033 58.7266 26.8972 58.4781 27.335 58.0358C27.7729 57.5935 28.0189 56.9936 28.0189 56.3681V37.5002C28.0189 36.8747 27.7729 36.2748 27.335 35.8325C26.8972 35.3902 26.3033 35.1417 25.684 35.1417ZM35.0236 42.2172C35.6429 42.2172 36.2368 42.4657 36.6747 42.908C37.1125 43.3503 37.3585 43.9502 37.3585 44.5757V56.3681C37.3585 56.9936 37.1125 57.5935 36.6747 58.0358C36.2368 58.4781 35.6429 58.7266 35.0236 58.7266C34.4044 58.7266 33.8105 58.4781 33.3726 58.0358C32.9347 57.5935 32.6887 56.9936 32.6887 56.3681V44.5757C32.6887 43.9502 32.9347 43.3503 33.3726 42.908C33.8105 42.4657 34.4044 42.2172 35.0236 42.2172ZM44.3633 30.4247C43.744 30.4247 43.1501 30.6732 42.7122 31.1155C42.2743 31.5578 42.0283 32.1577 42.0283 32.7832V56.3681C42.0283 56.9936 42.2743 57.5935 42.7122 58.0358C43.1501 58.4781 43.744 58.7266 44.3633 58.7266C44.9825 58.7266 45.5764 58.4781 46.0143 58.0358C46.4522 57.5935 46.6982 56.9936 46.6982 56.3681V32.7832C46.6982 32.1577 46.4522 31.5578 46.0143 31.1155C45.5764 30.6732 44.9825 30.4247 44.3633 30.4247Z" fill="#1F2278"/>
<path fill-rule="evenodd" clip-rule="evenodd" d="M11.7017 -7.62939e-05C8.59823 -7.62939e-05 5.62185 1.23457 3.42735 3.43227C1.23284 5.62996 -1.52588e-05 8.61067 -1.52588e-05 11.7187V63.2812C-1.52588e-05 66.3892 1.23284 69.3699 3.42735 71.5676C5.62185 73.7653 8.59823 74.9999 11.7017 74.9999H49.1473C52.2508 74.9999 55.2272 73.7653 57.4217 71.5676C59.6162 69.3699 60.849 66.3892 60.849 63.2812V11.7187C60.849 8.61067 59.6162 5.62996 57.4217 3.43227C55.2272 1.23457 52.2508 -7.62939e-05 49.1473 -7.62939e-05L11.7017 -7.62939e-05ZM4.68068 11.7187C4.68068 9.85387 5.4204 8.06544 6.7371 6.74683C8.0538 5.42821 9.83963 4.68742 11.7017 4.68742H49.1473C51.0094 4.68742 52.7952 5.42821 54.1119 6.74683C55.4286 8.06544 56.1683 9.85387 56.1683 11.7187V63.2812C56.1683 65.146 55.4286 66.9344 54.1119 68.253C52.7952 69.5716 51.0094 70.3124 49.1473 70.3124H11.7017C9.83963 70.3124 8.0538 69.5716 6.7371 68.253C5.4204 66.9344 4.68068 65.146 4.68068 63.2812V11.7187Z" fill="#1F2278"/>
</svg>
