<svg width="64" height="64" viewBox="0 0 64 64" fill="none" xmlns="http://www.w3.org/2000/svg">
<g clip-path="url(#clip0_1_1220)">
<path d="M4.791 0.0749969H33.572C34.399 0.0749969 35.11 0.369998 35.694 0.953998L48.309 13.569C48.893 14.154 49.188 14.864 49.188 15.691V22.493C49.188 22.686 49.085 22.852 48.912 22.939C48.739 23.026 48.544 23.008 48.389 22.893C47.466 22.203 46.488 21.617 45.473 21.133C45.294 21.049 45.188 20.879 45.188 20.682V16.306H37.173C34.851 16.306 32.957 14.412 32.957 12.09V4.076H4.791C4.358 4.076 4 4.433 4 4.867V58.836C4 59.28 4.347 59.627 4.791 59.627H44.396C44.83 59.627 45.188 59.269 45.188 58.836V54.087C45.188 53.84 45.363 53.633 45.608 53.593C45.852 53.554 46.083 53.694 46.162 53.929C46.412 54.684 46.755 55.651 47.508 56.456L49.048 58.054C49.141 58.151 49.188 58.266 49.188 58.401V58.836C49.188 61.476 47.037 63.627 44.396 63.627H4.791C2.161 63.627 0 61.466 0 58.836V4.867C0 2.226 2.151 0.0749969 4.791 0.0749969ZM17.266 27.198H22.476C22.657 27.198 22.813 27.287 22.906 27.444C22.998 27.6 23.001 27.779 22.913 27.939C22.533 28.628 22.198 29.346 21.913 30.087C21.838 30.284 21.658 30.407 21.447 30.407H17.266C16.837 30.407 16.486 30.057 16.486 29.629V27.978C16.486 27.548 16.837 27.198 17.266 27.198ZM9.626 34.066H12.519C12.948 34.066 13.299 34.417 13.299 34.846V36.497C13.299 36.925 12.948 37.276 12.519 37.276H9.626C9.197 37.276 8.847 36.925 8.847 36.497V34.846C8.847 34.417 9.197 34.066 9.626 34.066ZM17.266 34.066H20.344C20.49 34.066 20.616 34.122 20.714 34.23C20.812 34.338 20.856 34.469 20.841 34.615C20.785 35.184 20.756 35.761 20.756 36.345C20.756 36.485 20.758 36.625 20.761 36.764C20.765 36.904 20.717 37.025 20.619 37.125C20.521 37.225 20.401 37.276 20.261 37.276H17.266C16.837 37.276 16.486 36.925 16.486 36.497V34.846C16.486 34.417 16.837 34.066 17.266 34.066ZM9.626 20.33H12.519C12.948 20.33 13.299 20.681 13.299 21.109V22.76C13.299 23.189 12.948 23.54 12.519 23.54H9.626C9.197 23.54 8.847 23.189 8.847 22.76V21.109C8.847 20.681 9.197 20.33 9.626 20.33ZM9.626 27.198H12.519C12.948 27.198 13.299 27.548 13.299 27.978V29.629C13.299 30.057 12.948 30.407 12.519 30.407H9.626C9.197 30.407 8.847 30.057 8.847 29.629V27.978C8.847 27.548 9.197 27.198 9.626 27.198ZM17.266 20.33H29.189C29.418 20.33 29.612 20.478 29.671 20.699C29.731 20.92 29.638 21.147 29.44 21.262C28.385 21.875 27.399 22.597 26.5 23.411C26.404 23.497 26.293 23.54 26.165 23.54H17.266C16.837 23.54 16.486 23.189 16.486 22.76V21.109C16.486 20.681 16.837 20.33 17.266 20.33ZM46.77 48.524C40.945 52.924 32.587 52.354 27.418 46.958C21.848 41.143 22.054 31.875 27.87 26.304C33.686 20.733 42.954 20.938 48.523 26.756C53.693 32.152 53.898 40.527 49.249 46.15L51.279 48.266C52.584 47.912 54.03 48.256 55.041 49.287L62.947 57.528C64.392 59.043 64.347 61.431 62.831 62.872C61.316 64.316 58.929 64.272 57.485 62.756L49.563 54.532C48.572 53.474 48.249 51.958 48.751 50.594L46.77 48.524ZM46.237 28.943C41.875 24.399 34.618 24.231 30.057 28.592C25.513 32.951 25.346 40.211 29.705 44.77C34.066 49.331 41.326 49.482 45.885 45.121C50.444 40.762 50.596 33.502 46.237 28.943Z" fill="#1F2278"/>
</g>
<defs>
<clipPath id="clip0_1_1220">
<rect width="64.0002" height="64" fill="white"/>
</clipPath>
</defs>
</svg>
