<svg width="54" height="57" viewBox="0 0 54 57" fill="none" xmlns="http://www.w3.org/2000/svg">
<g id="bell-ringing 1" clip-path="url(#clip0_1_1201)">
<path id="Vector" d="M51.75 14.8208C51.2645 15.0737 50.699 15.1224 50.1779 14.956C49.6567 14.7897 49.2225 14.4219 48.9708 13.9336C47.0021 10.0207 44.0223 6.71343 40.3444 4.35944C40.1152 4.21399 39.9167 4.02453 39.7602 3.8019C39.6038 3.57927 39.4925 3.32781 39.4326 3.06189C39.3728 2.79598 39.3656 2.5208 39.4114 2.25208C39.4573 1.98336 39.5553 1.72635 39.6998 1.49574C39.8444 1.26513 40.0327 1.06542 40.254 0.908025C40.4753 0.750629 40.7252 0.638624 40.9895 0.578407C41.2538 0.51819 41.5273 0.510939 41.7944 0.557069C42.0614 0.603198 42.3169 0.701804 42.5461 0.847257C46.8325 3.60859 50.313 7.46583 52.6317 12.0245C52.8831 12.513 52.9315 13.0819 52.7661 13.6063C52.6008 14.1306 52.2353 14.5674 51.75 14.8208ZM3.20647 15.0542C3.58433 15.0541 3.95488 14.9495 4.27768 14.7518C4.60048 14.5542 4.86313 14.2712 5.03694 13.9336C7.00561 10.0207 9.98544 6.71343 13.6633 4.35944C14.1263 4.06568 14.4542 3.59894 14.5751 3.06189C14.696 2.52485 14.5998 1.96148 14.3079 1.49574C14.0159 1.03 13.552 0.700021 13.0182 0.578407C12.4845 0.456793 11.9245 0.553501 11.4616 0.847257C7.17525 3.60859 3.69472 7.46583 1.376 12.0245C1.21316 12.3408 1.13397 12.6938 1.14604 13.0498C1.1581 13.4058 1.26103 13.7526 1.44491 14.057C1.62879 14.3613 1.88744 14.6129 2.19595 14.7876C2.50447 14.9622 2.85247 15.0541 3.20647 15.0542ZM51.1854 42.0155C51.5508 42.646 51.7445 43.3622 51.747 44.092C51.7495 44.8218 51.5606 45.5393 51.1996 46.1723C50.8385 46.8052 50.3179 47.3312 49.6903 47.6971C49.0627 48.063 48.3503 48.256 47.625 48.2565H37.1062C36.6329 50.602 35.3681 52.7108 33.5263 54.2254C31.6844 55.7401 29.3788 56.5675 27 56.5675C24.6212 56.5675 22.3155 55.7401 20.4737 54.2254C18.6319 52.7108 17.3671 50.602 16.8937 48.2565H6.37499C5.65007 48.2551 4.93834 48.0615 4.31147 47.6952C3.68461 47.3289 3.16476 46.8028 2.80428 46.17C2.44381 45.5372 2.25544 44.82 2.25816 44.0907C2.26087 43.3613 2.45458 42.6456 2.81975 42.0155C5.14264 37.982 6.37499 32.2468 6.37499 25.4299C6.37499 19.9263 8.54797 14.6481 12.4159 10.7564C16.2838 6.8648 21.5299 4.67849 27 4.67849C32.4701 4.67849 37.7161 6.8648 41.5841 10.7564C45.452 14.6481 47.625 19.9263 47.625 25.4299C47.625 32.2442 48.8573 37.9794 51.1854 42.0155ZM32.8317 48.2565H21.1683C21.5956 49.469 22.3857 50.5184 23.43 51.2607C24.4743 52.0029 25.7214 52.4014 27 52.4014C28.2786 52.4014 29.5257 52.0029 30.57 51.2607C31.6143 50.5184 32.4044 49.469 32.8317 48.2565ZM47.625 44.1062C44.8819 39.3671 43.5 33.0846 43.5 25.4299C43.5 21.027 41.7616 16.8045 38.6673 13.6911C35.5729 10.5778 31.3761 8.82878 27 8.82878C22.6239 8.82878 18.4271 10.5778 15.3327 13.6911C12.2384 16.8045 10.5 21.027 10.5 25.4299C10.5 33.0872 9.11296 39.3697 6.37499 44.1062H47.625Z" fill="#1F2278"/>
</g>
<defs>
<clipPath id="clip0_1_1201">
<rect width="54" height="56.7458" fill="white"/>
</clipPath>
</defs>
</svg>
