<svg width="71" height="73" viewBox="0 0 71 73" fill="none" xmlns="http://www.w3.org/2000/svg">
<path d="M60.0746 10.4443L27.8151 40.2224" stroke="#1F2278" stroke-width="5" stroke-miterlimit="10" stroke-linecap="round" stroke-linejoin="round"/>
<path d="M27.815 65.0373C41.52 65.0373 52.6301 53.9272 52.6301 40.2223C52.6301 26.5173 41.52 15.4072 27.815 15.4072C14.1101 15.4072 3 26.5173 3 40.2223C3 53.9272 14.1101 65.0373 27.815 65.0373Z" stroke="#1F2278" stroke-width="5" stroke-miterlimit="10" stroke-linecap="round" stroke-linejoin="round"/>
<path d="M27.8151 52.631C34.6675 52.631 40.2226 47.0759 40.2226 40.2234C40.2226 33.371 34.6675 27.8159 27.8151 27.8159C20.9626 27.8159 15.4075 33.371 15.4075 40.2234C15.4075 47.0759 20.9626 52.631 27.8151 52.631Z" stroke="#1F2278" stroke-width="5" stroke-miterlimit="10" stroke-linecap="round" stroke-linejoin="round"/>
<path d="M7.96295 70.0007L12.926 60.0747" stroke="#1F2278" stroke-width="5" stroke-miterlimit="10" stroke-linecap="round" stroke-linejoin="round"/>
<path d="M47.6671 70.0007L42.7041 60.0747" stroke="#1F2278" stroke-width="5" stroke-miterlimit="10" stroke-linecap="round" stroke-linejoin="round"/>
<path d="M60.0746 3V10.4445H67.5192" stroke="#1F2278" stroke-width="5" stroke-miterlimit="10" stroke-linecap="round" stroke-linejoin="round"/>
<path d="M52.6301 10.4443V17.8888H60.0746" stroke="#1F2278" stroke-width="5" stroke-miterlimit="10" stroke-linecap="round" stroke-linejoin="round"/>
</svg>
