<svg width="71" height="59" viewBox="0 0 71 59" fill="none" xmlns="http://www.w3.org/2000/svg">
<path d="M23.8248 52.8035L23.8232 52.8056L23.8088 52.8239C23.3443 53.415 22.8491 54.0452 22.5637 54.7074C22.2688 55.3916 22.188 56.1318 22.5778 56.9173C22.8945 57.6469 23.7065 58.3 25.1818 58.3H45.0455H45.0542C45.4848 58.3 46.2311 58.3 46.9619 58.0945C47.7025 57.8862 48.4659 57.4552 48.8605 56.5673C49.2529 55.6845 49.0985 54.8942 48.7205 54.1973C48.3837 53.5763 47.8573 53.0084 47.3812 52.4949C47.3402 52.4506 47.2995 52.4067 47.2593 52.3633C47.1367 52.2106 46.9815 52.0352 46.8296 51.8635C46.7621 51.7871 46.6951 51.7115 46.6321 51.6389C46.4398 51.4178 46.289 51.2318 46.2091 51.1V47.9364H64.9091C67.9248 47.9364 70.3909 45.4702 70.3909 42.4545V6.18182C70.3909 3.16613 67.9248 0.7 64.9091 0.7H6.18182C3.16613 0.7 0.7 3.16613 0.7 6.18182V42.4545C0.7 45.4702 3.16613 47.9364 6.18182 47.9364H24.8818V51.2195C24.8638 51.2696 24.8245 51.3531 24.7579 51.47C24.6809 51.6051 24.5802 51.7628 24.4692 51.9266C24.2473 52.2543 23.993 52.5933 23.8248 52.8035ZM43.521 54.2455H27.7804C28.4118 53.3809 28.9364 52.3664 28.9364 51.2636V47.9364H42.1545V51.2636C42.1545 51.9401 42.396 52.5762 42.7357 53.1538C42.9614 53.5374 43.2349 53.9028 43.521 54.2455ZM66.3364 42.4545C66.3364 43.2389 65.6934 43.8818 64.9091 43.8818H6.18182C5.3975 43.8818 4.75455 43.2389 4.75455 42.4545V37.5727H66.3364V42.4545ZM66.3364 33.5182H4.75455V6.18182C4.75455 5.3975 5.3975 4.75455 6.18182 4.75455H64.9091C65.6934 4.75455 66.3364 5.3975 66.3364 6.18182V33.5182Z" fill="#1F2278" stroke="#308DD3" stroke-width="0.6"/>
</svg>
