<svg width="24" height="24" viewBox="0 0 24 24" fill="none" xmlns="http://www.w3.org/2000/svg">
<path id="Vector" d="M11.9984 0C5.37059 0 -0.00195312 5.37254 -0.00195312 12.0003C-0.00195312 18.6281 5.37059 24 11.9984 24C18.6261 24 23.998 18.6275 23.998 12.0003C23.998 5.37318 18.6255 0 11.9984 0ZM17.9874 8.91999C17.9325 8.99721 17.8604 9.0623 17.7927 9.1293C15.4909 11.4317 13.1815 13.7271 10.8931 16.0423C10.4585 16.4814 9.90844 16.4935 9.46812 16.0372C8.35201 14.8803 7.19888 13.759 6.06553 12.6187C5.62649 12.1771 5.7471 11.493 6.29973 11.2856C6.64305 11.1567 6.95191 11.2339 7.21611 11.4994C8.14206 12.4304 9.07247 13.3577 10.0016 14.2862C10.0565 14.3417 10.1152 14.394 10.2339 14.5076C10.2856 14.424 10.3188 14.3366 10.3794 14.2759C12.4821 12.1688 14.5886 10.0648 16.6919 7.95767C16.8789 7.77069 17.0767 7.64115 17.3588 7.64689C17.6804 7.65391 17.9089 7.79367 18.055 8.06615C18.2133 8.36034 18.1788 8.65069 17.9874 8.91999Z" fill="white"/>
</svg>
