<svg width="24" height="25" viewBox="0 0 24 25" fill="none" xmlns="http://www.w3.org/2000/svg">
<path d="M22.68 0.0166016H1.32C0.969914 0.0166016 0.634167 0.155673 0.386619 0.403221C0.139071 0.650769 0 0.986516 0 1.3366V22.6966C0 22.8699 0.0341429 23.0416 0.100479 23.2017C0.166815 23.3619 0.264046 23.5074 0.386619 23.63C0.509193 23.7526 0.654708 23.8498 0.814858 23.9161C0.975008 23.9825 1.14666 24.0166 1.32 24.0166H12.816V14.7166H9.696V11.1166H12.816V8.4166C12.7514 7.78271 12.8262 7.14235 13.0353 6.54045C13.2443 5.93854 13.5825 5.38966 14.0262 4.9323C14.4698 4.47493 15.0081 4.12017 15.6034 3.89289C16.1987 3.6656 16.8364 3.5713 17.472 3.6166C18.406 3.61085 19.3395 3.65893 20.268 3.7606V7.0006H18.36C16.848 7.0006 16.56 7.7206 16.56 8.7646V11.0806H20.16L19.692 14.6806H16.56V24.0166H22.68C22.8533 24.0166 23.025 23.9825 23.1851 23.9161C23.3453 23.8498 23.4908 23.7526 23.6134 23.63C23.736 23.5074 23.8332 23.3619 23.8995 23.2017C23.9659 23.0416 24 22.8699 24 22.6966V1.3366C24 1.16326 23.9659 0.991609 23.8995 0.83146C23.8332 0.67131 23.736 0.525794 23.6134 0.403221C23.4908 0.280647 23.3453 0.183417 23.1851 0.117081C23.025 0.0507445 22.8533 0.0166016 22.68 0.0166016Z" fill="#475993"/>
</svg>
