<svg width="12" height="22" viewBox="0 0 12 22" fill="none" xmlns="http://www.w3.org/2000/svg">
<path d="M0.291943 10.2919L10.2919 0.291943C10.3849 0.199032 10.4952 0.125334 10.6165 0.0750505C10.7379 0.024767 10.868 -0.00111379 10.9994 -0.0011138C11.1308 -0.00111382 11.2609 0.024767 11.3823 0.0750504C11.5037 0.125334 11.614 0.199032 11.7069 0.291943C11.7999 0.384853 11.8736 0.495153 11.9238 0.616547C11.9741 0.73794 12 0.868048 12 0.999443C12 1.13084 11.9741 1.26095 11.9238 1.38234C11.8736 1.50373 11.7999 1.61403 11.7069 1.70694L2.41319 10.9994L11.7069 20.2919C11.8946 20.4796 12 20.7341 12 20.9994C12 21.2648 11.8946 21.5193 11.7069 21.7069C11.5193 21.8946 11.2648 22 10.9994 22C10.7341 22 10.4796 21.8946 10.2919 21.7069L0.291943 11.7069C0.198966 11.6141 0.125207 11.5038 0.0748825 11.3824C0.0245581 11.261 -0.00134277 11.1309 -0.00134278 10.9994C-0.00134279 10.868 0.024558 10.7379 0.0748825 10.6165C0.125207 10.4951 0.198966 10.3848 0.291943 10.2919Z" fill="#0AA1D9"/>
</svg>
