<svg width="25" height="25" viewBox="0 0 25 25" fill="none" xmlns="http://www.w3.org/2000/svg">
<path d="M22.4512 0.0167694H2.00048C1.77059 0.0135959 1.54233 0.0554658 1.32873 0.139988C1.11512 0.224511 0.920361 0.350029 0.755565 0.509377C0.59077 0.668724 0.459168 0.858779 0.368275 1.06869C0.277382 1.27859 0.228979 1.50424 0.22583 1.73275V22.3005C0.228979 22.529 0.277382 22.7546 0.368275 22.9645C0.459168 23.1744 0.59077 23.3645 0.755565 23.5238C0.920361 23.6832 1.11512 23.8087 1.32873 23.8932C1.54233 23.9777 1.77059 24.0196 2.00048 24.0164H22.4512C22.6811 24.0196 22.9093 23.9777 23.1229 23.8932C23.3365 23.8087 23.5313 23.6832 23.6961 23.5238C23.8609 23.3645 23.9925 23.1744 24.0834 22.9645C24.1743 22.7546 24.2227 22.529 24.2258 22.3005V1.73275C24.2227 1.50424 24.1743 1.27859 24.0834 1.06869C23.9925 0.858779 23.8609 0.668724 23.6961 0.509377C23.5313 0.350029 23.3365 0.224511 23.1229 0.139988C22.9093 0.0554658 22.6811 0.0135959 22.4512 0.0167694ZM7.50551 20.1045H3.88378V9.30464H7.50551V20.1045ZM5.69464 7.79266C5.19516 7.79266 4.71614 7.59544 4.36295 7.24437C4.00976 6.89331 3.81134 6.41717 3.81134 5.92069C3.81134 5.42421 4.00976 4.94806 4.36295 4.597C4.71614 4.24594 5.19516 4.04871 5.69464 4.04871C5.95987 4.01882 6.22846 4.04494 6.48282 4.12537C6.73719 4.20581 6.97159 4.33874 7.17069 4.51546C7.36978 4.69218 7.52908 4.90872 7.63815 5.15088C7.74722 5.39304 7.8036 5.65537 7.8036 5.92069C7.8036 6.18601 7.74722 6.44834 7.63815 6.6905C7.52908 6.93266 7.36978 7.14919 7.17069 7.32591C6.97159 7.50264 6.73719 7.63557 6.48282 7.716C6.22846 7.79644 5.95987 7.82256 5.69464 7.79266ZM20.5679 20.1045H16.9462V14.3086C16.9462 12.8566 16.427 11.9086 15.1111 11.9086C14.7039 11.9116 14.3073 12.0385 13.9749 12.2724C13.6425 12.5063 13.3902 12.8358 13.252 13.2166C13.1575 13.4986 13.1166 13.7957 13.1313 14.0926V20.0925H9.50953C9.50953 20.0925 9.50953 10.2766 9.50953 9.29264H13.1313V10.8166C13.4603 10.2492 13.9388 9.78166 14.5153 9.46448C15.0918 9.1473 15.7444 8.99247 16.4029 9.01664C18.8174 9.01664 20.5679 10.5646 20.5679 13.8886V20.1045Z" fill="#0077B7"/>
</svg>
