<svg width="25" height="18" viewBox="0 0 25 18" fill="none" xmlns="http://www.w3.org/2000/svg">
<path d="M24.4461 6.88942C24.5 5.3134 24.1588 3.74918 23.454 2.34199C22.9759 1.76458 22.3123 1.37493 21.5789 1.24092C18.5453 0.962922 15.4993 0.848982 12.4537 0.899583C9.41923 0.846685 6.38412 0.956949 3.36126 1.22991C2.76362 1.3397 2.21055 1.62281 1.76954 2.0447C0.788338 2.95859 0.679316 4.52211 0.570294 5.8434C0.412116 8.21904 0.412116 10.6027 0.570294 12.9784C0.601834 13.722 0.71147 14.4602 0.89736 15.1805C1.02881 15.7366 1.29477 16.2511 1.67142 16.678C2.11543 17.1222 2.68138 17.4214 3.29585 17.5368C5.64627 17.8298 8.01456 17.9512 10.3823 17.9002C14.1981 17.9552 17.545 17.9002 21.5025 17.5919C22.1321 17.4836 22.714 17.184 23.1706 16.733C23.4758 16.4246 23.7038 16.0472 23.8356 15.6319C24.2255 14.4236 24.417 13.1591 24.4025 11.8883C24.4461 11.2717 24.4461 7.55007 24.4461 6.88942ZM9.9898 12.5489V5.73329L16.4439 9.15763C14.6341 10.1706 12.2466 11.3157 9.9898 12.5489Z" fill="#FE1F1F"/>
</svg>
